<svg width="20" height="20" viewBox="0 0 20 20" fill="#9F9F9F" xmlns="http://www.w3.org/2000/svg">
<path fill-rule="evenodd" clip-rule="evenodd" d="M4.82047 2.64901C4.82047 2.20719 5.17865 1.84901 5.62047 1.84901H14.3796C14.8214 1.84901 15.1796 2.20719 15.1796 2.64901V4.03959C16.7983 4.0769 18.0991 5.40082 18.0991 7.02856C18.0991 8.67683 16.7653 10.0136 15.1182 10.0183C14.774 12.2383 13.02 13.9923 10.8 14.3365V15.7176H13.6496C14.0915 15.7176 14.4496 16.0757 14.4496 16.5176C14.4496 16.9594 14.0915 17.3176 13.6496 17.3176H10.0018L10 17.3176L9.99825 17.3176H6.3504C5.90857 17.3176 5.5504 16.9594 5.5504 16.5176C5.5504 16.0757 5.90857 15.7176 6.3504 15.7176H9.20002V14.3365C6.98003 13.9923 5.22606 12.2383 4.88188 10.0183C3.23459 10.0137 1.90063 8.67692 1.90063 7.02856C1.90063 5.40073 3.20157 4.07675 4.82047 4.03959V2.64901ZM13.5796 4.82361C13.5795 4.82865 13.5794 4.83372 13.5794 4.83879V9.21833C13.5794 9.22292 13.5795 9.22749 13.5795 9.23206C13.5721 11.2027 11.9724 12.7979 10 12.7979C8.02309 12.7979 6.42047 11.1953 6.42047 9.21833V3.44901H13.5796V4.82361ZM15.1796 8.41659C15.9145 8.38002 16.4991 7.77256 16.4991 7.02856C16.4991 6.28456 15.9145 5.6771 15.1796 5.64053V8.41659ZM3.50063 7.02856C3.50063 6.28451 4.08534 5.67702 4.82033 5.64052V8.4166C4.08534 8.3801 3.50063 7.77261 3.50063 7.02856Z" />
</svg>
