<svg width="20" height="20" viewBox="0 0 20 20" fill="none" xmlns="http://www.w3.org/2000/svg">
<g clip-path="url(#clip0_88_2807)">
<path d="M7.50008 19.0583H12.5001C14.7741 19.0583 16.4206 18.5729 17.4968 17.4967C18.573 16.4205 19.0584 14.7739 19.0584 12.5V7.49996C19.0584 5.22598 18.573 3.57939 17.4968 2.50321C16.4206 1.42702 14.7741 0.941626 12.5001 0.941626H7.50008C5.2261 0.941626 3.57951 1.42702 2.50333 2.50321C1.42714 3.57939 0.941748 5.22598 0.941748 7.49996V12.5C0.941748 14.7739 1.42714 16.4205 2.50333 17.4967C3.57951 18.5729 5.2261 19.0583 7.50008 19.0583ZM2.39175 7.49996C2.39175 5.58618 2.7332 4.31868 3.526 3.52588C4.3188 2.73308 5.5863 2.39163 7.50008 2.39163H12.5001C14.4139 2.39163 15.6814 2.73308 16.4742 3.52588C17.267 4.31868 17.6084 5.58618 17.6084 7.49996V12.5C17.6084 14.4137 17.267 15.6812 16.4742 16.474C15.6814 17.2668 14.4139 17.6083 12.5001 17.6083H7.50008C5.5863 17.6083 4.3188 17.2668 3.526 16.474C2.7332 15.6812 2.39175 14.4137 2.39175 12.5V7.49996Z" fill="#9F9F9F" stroke="#9F9F9F" stroke-width="0.2"/>
<path d="M5.52913 11.6306L5.52892 11.6309C5.47114 11.7064 5.42882 11.7926 5.40435 11.8845C5.37989 11.9764 5.37376 12.0722 5.38633 12.1665C5.3989 12.2608 5.42992 12.3517 5.47761 12.4339C5.52518 12.516 5.58843 12.588 5.66374 12.6457C5.79861 12.7514 5.95372 12.8 6.10835 12.8C6.32733 12.8 6.54352 12.7048 6.67325 12.508L8.65424 9.93599L8.65425 9.93599L8.65502 9.93497C8.67097 9.9137 8.6861 9.90311 8.69682 9.89774C8.70237 9.89497 8.7071 9.89341 8.71068 9.89256L8.71499 9.89177L8.71623 9.89165L8.71657 9.89164L8.71666 9.89163L8.71668 9.89163H8.71668H8.71669H8.727L8.7371 9.88953C8.74974 9.88689 8.76282 9.88723 8.77531 9.89052C8.7878 9.89381 8.79936 9.89995 8.80907 9.90847L8.80897 9.90858L8.81318 9.91189L10.3382 11.1119L10.3383 11.112C10.6671 11.3697 11.0768 11.4857 11.495 11.4326C11.9147 11.3877 12.28 11.173 12.5371 10.845L12.5374 10.8446L14.4619 8.36186C14.462 8.36173 14.4621 8.36161 14.4622 8.36149C14.7125 8.04335 14.6555 7.58861 14.3364 7.34601C14.262 7.28689 14.1766 7.24315 14.0851 7.21734C13.9933 7.19142 13.8972 7.18411 13.8024 7.19584C13.7077 7.20756 13.6163 7.23809 13.5335 7.28564C13.4509 7.33311 13.3786 7.39658 13.3207 7.47235C13.3207 7.47246 13.3206 7.47258 13.3205 7.47269L11.396 9.95537L11.396 9.95536L11.395 9.95663C11.3639 9.99812 11.3352 9.99997 11.3334 9.99997H11.3235L11.3137 10.0019C11.3016 10.0043 11.2902 10.0049 11.2793 10.0028C11.2693 10.0009 11.256 9.99603 11.2401 9.98238L11.2402 9.98231L11.2369 9.97971L9.71186 8.77971L9.71171 8.7796C9.38258 8.52163 8.96414 8.40565 8.55388 8.45913C8.13532 8.5126 7.7703 8.72664 7.51298 9.05495L7.51246 9.05561L5.52913 11.6306Z" fill="#9F9F9F" stroke="#9F9F9F" stroke-width="0.2"/>
</g>
<defs>
<clipPath id="clip0_88_2807">
<rect width="20" height="20" fill="white"/>
</clipPath>
</defs>
</svg>
