<svg width="20" height="20" viewBox="0 0 20 20" stroke="#9F9F9F"  fill="none" xmlns="http://www.w3.org/2000/svg">
<path d="M11.8934 8.70416L15.0001 1.66666L11.8934 8.70416ZM7.76341 8.85999L4.16675 1.66666L7.76341 8.85999ZM10.6342 8.37332L7.36258 1.66666L10.6342 8.37332ZM11.9667 1.66666L11.1001 3.74999L11.9667 1.66666ZM5.00008 13.3333C5.00008 14.6594 5.52687 15.9312 6.46455 16.8689C7.40223 17.8065 8.674 18.3333 10.0001 18.3333C11.3262 18.3333 12.5979 17.8065 13.5356 16.8689C14.4733 15.9312 15.0001 14.6594 15.0001 13.3333C15.0001 12.0072 14.4733 10.7355 13.5356 9.79779C12.5979 8.86011 11.3262 8.33332 10.0001 8.33332C8.674 8.33332 7.40223 8.86011 6.46455 9.79779C5.52687 10.7355 5.00008 12.0072 5.00008 13.3333V13.3333Z" stroke-width="1.6" stroke-linecap="round" stroke-linejoin="round"/>
<path d="M8.75 12.5L10.4167 11.25V15.4167" stroke-width="1.6" stroke-linecap="round" stroke-linejoin="round"/>
</svg>
