<svg width="24" height="24" viewBox="0 0 24 24" fill="none" xmlns="http://www.w3.org/2000/svg">
<path d="M14 9H11.5C11.1022 9 10.7206 9.15804 10.4393 9.43934C10.158 9.72064 10 10.1022 10 10.5C10 10.8978 10.158 11.2794 10.4393 11.5607C10.7206 11.842 11.1022 12 11.5 12H12.5C12.8978 12 13.2794 12.158 13.5607 12.4393C13.842 12.7206 14 13.1022 14 13.5C14 13.8978 13.842 14.2794 13.5607 14.5607C13.2794 14.842 12.8978 15 12.5 15H10M12 15V16M12 8V9M19 12C19 15.866 15.866 19 12 19C8.13401 19 5 15.866 5 12C5 8.13401 8.13401 5 12 5C15.866 5 19 8.13401 19 12Z" stroke="#8569D0" stroke-width="1.8" stroke-linecap="round" stroke-linejoin="round"/>
</svg>
