<svg width="20" height="20" viewBox="0 0 20 20" fill="none" xmlns="http://www.w3.org/2000/svg">
<path fill-rule="evenodd" clip-rule="evenodd" d="M6.53539 6.78798C6.53618 4.76085 8.17922 3.125 10.1964 3.125C12.2141 3.125 13.8574 4.76165 13.8574 6.78946C13.8574 8.81816 12.214 10.4539 10.1964 10.4539H10.1752L10.1727 10.4539C8.16039 10.4472 6.52849 8.80975 6.53539 6.78798ZM6.53539 6.78798L6.53539 6.7865L7.30328 6.78946H6.53539V6.78798ZM10.1964 4.66912C9.01869 4.66912 8.07117 5.62268 8.07117 6.78946V6.79241C8.06674 7.95358 9.0051 8.90529 10.1766 8.9098H10.1964C11.3743 8.9098 12.3217 7.95686 12.3217 6.78946C12.3217 5.62268 11.3741 4.66912 10.1964 4.66912ZM6.78328 11.4204C7.73059 11.1028 8.96275 11.0122 10.1964 11.0122C11.4376 11.0122 12.6705 11.1059 13.6169 11.4275C14.0941 11.5897 14.5547 11.828 14.903 12.1929C15.2692 12.5765 15.4779 13.0671 15.4779 13.639C15.4779 14.2127 15.2671 14.7034 14.8984 15.0856C14.5482 15.4487 14.0858 15.6842 13.6085 15.8438C12.6615 16.1604 11.4296 16.25 10.1964 16.25C8.95537 16.25 7.72249 16.1567 6.776 15.8358C6.29891 15.674 5.8381 15.4361 5.48968 15.0717C5.12322 14.6885 4.9142 14.1981 4.9142 13.6262C4.9142 13.0525 5.12515 12.5619 5.49363 12.1796C5.84363 11.8165 6.30591 11.5804 6.78328 11.4204ZM6.59649 13.2542C6.49897 13.3554 6.44998 13.4632 6.44998 13.6262C6.44998 13.7904 6.49929 13.8996 6.59681 14.0016C6.71238 14.1224 6.9212 14.2554 7.26673 14.3726C7.96548 14.6095 8.98977 14.7059 10.1964 14.7059C11.3981 14.7059 12.4229 14.6129 13.124 14.3786C13.4707 14.2626 13.6802 14.1306 13.7959 14.0107C13.893 13.9099 13.9421 13.8023 13.9421 13.639C13.9421 13.4741 13.8926 13.3643 13.7949 13.262C13.6793 13.1409 13.4705 13.0077 13.1252 12.8904C12.4268 12.6531 11.4029 12.5563 10.1964 12.5563C8.99526 12.5563 7.97027 12.6501 7.26911 12.8852C6.92225 13.0015 6.71248 13.1339 6.59649 13.2542Z" fill="#9F9F9F"/>
</svg>
