<svg width="24" height="24" viewBox="0 0 24 24" fill="none" xmlns="http://www.w3.org/2000/svg">
<path d="M3.02171 8.5C2.73223 8.5 2.48974 8.404 2.29425 8.212C2.09808 8.02067 2 7.78333 2 7.5C2 7.21667 2.09808 6.979 2.29425 6.787C2.48974 6.59567 2.73223 6.5 3.02171 6.5H6.08685C6.37633 6.5 6.61916 6.59567 6.81533 6.787C7.01081 6.979 7.10856 7.21667 7.10856 7.5C7.10856 7.78333 7.01081 8.02067 6.81533 8.212C6.61916 8.404 6.37633 8.5 6.08685 8.5H3.02171ZM3.02171 13.5C2.73223 13.5 2.48974 13.404 2.29425 13.212C2.09808 13.0207 2 12.7833 2 12.5C2 12.2167 2.09808 11.979 2.29425 11.787C2.48974 11.5957 2.73223 11.5 3.02171 11.5H6.08685C6.37633 11.5 6.61916 11.5957 6.81533 11.787C7.01081 11.979 7.10856 12.2167 7.10856 12.5C7.10856 12.7833 7.01081 13.0207 6.81533 13.212C6.61916 13.404 6.37633 13.5 6.08685 13.5H3.02171ZM20.2886 17.8L17.0702 14.65C16.6616 14.9333 16.2147 15.1457 15.7298 15.287C15.2441 15.429 14.7544 15.5 14.2605 15.5C12.8472 15.5 11.6426 15.0123 10.6467 14.037C9.65023 13.0623 9.15198 11.8833 9.15198 10.5C9.15198 9.11667 9.65023 7.93733 10.6467 6.962C11.6426 5.98733 12.8472 5.5 14.2605 5.5C15.6739 5.5 16.8788 5.98733 17.8754 6.962C18.8712 7.93733 19.3691 9.11667 19.3691 10.5C19.3691 10.9833 19.2969 11.4627 19.1525 11.938C19.0074 12.4127 18.7901 12.85 18.5006 13.25L21.719 16.4C21.9063 16.5833 22 16.8167 22 17.1C22 17.3833 21.9063 17.6167 21.719 17.8C21.5317 17.9833 21.2933 18.075 21.0038 18.075C20.7143 18.075 20.4759 17.9833 20.2886 17.8ZM14.2605 13.5C15.112 13.5 15.8357 13.2083 16.4317 12.625C17.0277 12.0417 17.3257 11.3333 17.3257 10.5C17.3257 9.66667 17.0277 8.95833 16.4317 8.375C15.8357 7.79167 15.112 7.5 14.2605 7.5C13.4091 7.5 12.6854 7.79167 12.0894 8.375C11.4934 8.95833 11.1954 9.66667 11.1954 10.5C11.1954 11.3333 11.4934 12.0417 12.0894 12.625C12.6854 13.2083 13.4091 13.5 14.2605 13.5ZM3.02171 18.5C2.73223 18.5 2.48974 18.404 2.29425 18.212C2.09808 18.0207 2 17.7833 2 17.5C2 17.2167 2.09808 16.9793 2.29425 16.788C2.48974 16.596 2.73223 16.5 3.02171 16.5H11.1954C11.4849 16.5 11.7277 16.596 11.9239 16.788C12.1194 16.9793 12.2171 17.2167 12.2171 17.5C12.2171 17.7833 12.1194 18.0207 11.9239 18.212C11.7277 18.404 11.4849 18.5 11.1954 18.5H3.02171Z" fill="#8569D0"/>
</svg>
