<svg width="24" height="24" viewBox="0 0 24 24" fill="none" xmlns="http://www.w3.org/2000/svg">
<path d="M6 15.0002C5.17 15.0002 4.42 15.3402 3.88 15.8802C2.7 17.0602 2 22.0002 2 22.0002C2 22.0002 6.94 21.3002 8.12 20.1202C8.54099 19.7014 8.82802 19.1669 8.94467 18.5847C9.06131 18.0024 9.0023 17.3987 8.77513 16.85C8.54796 16.3014 8.16287 15.8326 7.66876 15.5032C7.17465 15.1739 6.59382 14.9988 6 15.0002ZM6.71 18.7102C6.43 18.9902 4.54 19.4702 4.54 19.4702C4.54 19.4702 5.01 17.5902 5.3 17.3002C5.47 17.1102 5.72 17.0002 6 17.0002C6.19798 17.0005 6.39145 17.0593 6.55604 17.1694C6.72062 17.2794 6.84896 17.4357 6.92488 17.6186C7.0008 17.8014 7.02091 18.0026 6.98267 18.1969C6.94443 18.3911 6.84956 18.5697 6.71 18.7102ZM17.42 13.6502C23.78 7.29018 21.66 2.34018 21.66 2.34018C21.66 2.34018 16.71 0.220177 10.35 6.58018L7.86 6.08018C7.53632 6.01803 7.20237 6.03563 6.88702 6.13145C6.57166 6.22728 6.28438 6.39845 6.05 6.63018L2 10.6902L7 12.8302L11.17 17.0002L13.31 22.0002L17.36 17.9502C17.83 17.4802 18.04 16.8002 17.91 16.1402L17.42 13.6502ZM7.41 10.8302L5.5 10.0102L7.47 8.04018L8.91 8.33018C8.34 9.16018 7.83 10.0302 7.41 10.8302ZM13.99 18.5002L13.17 16.5902C13.97 16.1702 14.84 15.6602 15.66 15.0902L15.95 16.5302L13.99 18.5002ZM16 12.2402C14.68 13.5602 12.62 14.6402 11.96 14.9702L9.03 12.0402C9.35 11.3902 10.43 9.33018 11.76 8.00018C16.44 3.32018 19.99 4.01018 19.99 4.01018C19.99 4.01018 20.68 7.56018 16 12.2402ZM15 11.0002C16.1 11.0002 17 10.1002 17 9.00018C17 7.90018 16.1 7.00018 15 7.00018C13.9 7.00018 13 7.90018 13 9.00018C13 10.1002 13.9 11.0002 15 11.0002Z" fill="#8569D0"/>
</svg>
