<svg width="20" height="20" viewBox="0 0 20 20" fill="#9F9F9F" fill="none" xmlns="http://www.w3.org/2000/svg">
<path fill-rule="evenodd" clip-rule="evenodd" d="M4.82047 2.649C4.82047 2.20717 5.17865 1.849 5.62047 1.849H14.3796C14.8214 1.849 15.1796 2.20717 15.1796 2.649V4.03958C16.7983 4.07689 18.0991 5.40081 18.0991 7.02854C18.0991 8.67681 16.7653 10.0136 15.1182 10.0183C14.774 12.2383 13.02 13.9923 10.8 14.3365V15.7176H13.6496C14.0915 15.7176 14.4496 16.0757 14.4496 16.5176C14.4496 16.9594 14.0915 17.3176 13.6496 17.3176H10.0018L10 17.3176L9.99825 17.3176H6.3504C5.90857 17.3176 5.5504 16.9594 5.5504 16.5176C5.5504 16.0757 5.90857 15.7176 6.3504 15.7176H9.20002V14.3365C6.98003 13.9923 5.22606 12.2383 4.88188 10.0183C3.23459 10.0137 1.90063 8.67691 1.90063 7.02854C1.90063 5.40071 3.20157 4.07673 4.82047 4.03957V2.649ZM13.5796 4.82359C13.5795 4.82864 13.5794 4.8337 13.5794 4.83877V9.21832C13.5794 9.2229 13.5795 9.22748 13.5795 9.23204C13.5721 11.2027 11.9724 12.7979 10 12.7979C8.02309 12.7979 6.42047 11.1952 6.42047 9.21832V3.449H13.5796V4.82359ZM15.1796 8.41657C15.9145 8.38 16.4991 7.77255 16.4991 7.02854C16.4991 6.28454 15.9145 5.67709 15.1796 5.64051V8.41657ZM3.50063 7.02854C3.50063 6.28449 4.08534 5.67701 4.82033 5.64051V8.41658C4.08534 8.38008 3.50063 7.7726 3.50063 7.02854Z"/>
</svg>
