<svg width="20" height="20" viewBox="0 0 20 20" stroke="#9F9F9F" fill="none" xmlns="http://www.w3.org/2000/svg">
<path d="M14.5854 9.13407C15.6734 8.98122 16.5109 8.0485 16.5133 6.91848C16.5133 5.80483 15.7014 4.88148 14.6369 4.70679" stroke-width="1.6" stroke-linecap="round" stroke-linejoin="round"/>
<path d="M16.0205 11.7493C17.0741 11.9068 17.8095 12.2757 17.8095 13.0361C17.8095 13.5594 17.4633 13.8994 16.9033 14.1131" stroke-width="1.6" stroke-linecap="round" stroke-linejoin="round"/>
<path fill-rule="evenodd" clip-rule="evenodd" d="M9.90526 12.0718C7.39878 12.0718 5.25806 12.4516 5.25806 13.9684C5.25806 15.4845 7.38552 15.8752 9.90526 15.8752C12.4117 15.8752 14.5517 15.4993 14.5517 13.9817C14.5517 12.4641 12.425 12.0718 9.90526 12.0718Z" stroke-width="1.6" stroke-linecap="round" stroke-linejoin="round"/>
<path fill-rule="evenodd" clip-rule="evenodd" d="M9.90508 9.90702C11.5498 9.90702 12.8834 8.57423 12.8834 6.92872C12.8834 5.28399 11.5498 3.95042 9.90508 3.95042C8.26035 3.95042 6.92678 5.28399 6.92678 6.92872C6.92054 8.56799 8.24397 9.90156 9.88324 9.90702H9.90508Z" stroke-width="1.6" stroke-linecap="round" stroke-linejoin="round"/>
<path d="M5.2247 9.13407C4.13601 8.98122 3.29921 8.0485 3.29688 6.91848C3.29688 5.80483 4.10871 4.88148 5.17323 4.70679" stroke-width="1.6" stroke-linecap="round" stroke-linejoin="round"/>
<path d="M3.78901 11.7493C2.73541 11.9068 2 12.2757 2 13.0361C2 13.5594 2.34626 13.8994 2.9062 14.1131" stroke-width="1.6" stroke-linecap="round" stroke-linejoin="round"/>
</svg>
