<svg width="20" height="20" viewBox="0 0 20 20" fill="#9F9F9F" xmlns="http://www.w3.org/2000/svg">
<path d="M1.66675 3.33332V15L5.66675 12C5.95508 11.7833 6.30591 11.6667 6.66675 11.6667H13.3334C13.7754 11.6667 14.1994 11.4911 14.5119 11.1785C14.8245 10.8659 15.0001 10.442 15.0001 9.99999V3.33332C15.0001 2.8913 14.8245 2.46737 14.5119 2.15481C14.1994 1.84225 13.7754 1.66666 13.3334 1.66666H3.33341C2.89139 1.66666 2.46746 1.84225 2.1549 2.15481C1.84234 2.46737 1.66675 2.8913 1.66675 3.33332ZM3.33341 11.6667V3.33332H13.3334V9.99999H6.11175C5.75097 9.99902 5.39978 10.1161 5.11175 10.3333L3.33341 11.6667Z"/>
<path d="M18.3335 18.3333V7.49998C18.3335 7.05795 18.1579 6.63403 17.8453 6.32147C17.5328 6.00891 17.1089 5.83331 16.6668 5.83331V15L14.8885 13.6666C14.6005 13.4494 14.2493 13.3323 13.8885 13.3333H5.8335C5.8335 13.5522 5.87661 13.7689 5.96036 13.9711C6.04412 14.1733 6.16689 14.3571 6.32165 14.5118C6.47642 14.6666 6.66015 14.7894 6.86236 14.8731C7.06457 14.9569 7.28129 15 7.50016 15H13.3335C13.6943 15 14.0452 15.1166 14.3335 15.3333L18.3335 18.3333Z"/>
</svg>
