<svg width="20" height="20" viewBox="0 0 20 20" fill="#9F9F9F" xmlns="http://www.w3.org/2000/svg">
<path fill-rule="evenodd" clip-rule="evenodd" d="M3.79996 5.72222C3.79996 5.19693 3.80262 4.82638 3.83929 4.53555C3.87517 4.25095 3.93344 4.14441 3.97116 4.09763C3.99992 4.06198 4.07853 3.98278 4.35211 3.91421C4.6384 3.84246 5.06863 3.8 5.72218 3.8C6.37574 3.8 6.80596 3.84246 7.09225 3.91421C7.36583 3.98278 7.44445 4.06198 7.4732 4.09763C7.51092 4.14441 7.5692 4.25095 7.60508 4.53555C7.64174 4.82638 7.6444 5.19693 7.6444 5.72222C7.6444 6.25034 7.64367 6.62117 7.60871 6.9142C7.57449 7.20104 7.51737 7.30573 7.4819 7.35021C7.45601 7.38267 7.38078 7.46139 7.10579 7.53006C6.81802 7.60192 6.38396 7.64444 5.72218 7.64444C5.06041 7.64444 4.62634 7.60192 4.33857 7.53006C4.06359 7.46139 3.98835 7.38267 3.96246 7.35021C3.92699 7.30573 3.86987 7.20104 3.83565 6.9142C3.80069 6.62117 3.79996 6.25034 3.79996 5.72222ZM5.72218 2.2C5.02556 2.2 4.44041 2.24259 3.96313 2.36222C3.47313 2.48503 3.03997 2.70354 2.72571 3.09322C2.42042 3.47177 2.30446 3.91817 2.25185 4.33541C2.20003 4.74641 2.19996 5.22659 2.19996 5.72222L2.19996 5.77332C2.1999 6.24814 2.19984 6.70907 2.24692 7.10373C2.29642 7.51873 2.40783 7.96698 2.71155 8.34782C3.02487 8.74069 3.45951 8.95968 3.95095 9.0824C4.42962 9.20192 5.01854 9.24444 5.72218 9.24444C6.42582 9.24444 7.01474 9.20192 7.49341 9.0824C7.98485 8.95968 8.41949 8.74069 8.73281 8.34782C9.03654 7.96698 9.14794 7.51873 9.19745 7.10373C9.24452 6.70908 9.24447 6.24815 9.24441 5.77334V5.77332L9.2444 5.72222C9.2444 5.22659 9.24433 4.74641 9.19251 4.33541C9.13991 3.91817 9.02394 3.47177 8.71865 3.09322C8.4044 2.70354 7.97123 2.48503 7.48124 2.36222C7.00395 2.24259 6.41881 2.2 5.72218 2.2ZM12.3551 5.72222C12.3551 5.19693 12.3578 4.82638 12.3945 4.53555C12.4303 4.25095 12.4886 4.14441 12.5263 4.09763C12.5551 4.06198 12.6337 3.98278 12.9073 3.91421C13.1936 3.84246 13.6238 3.8 14.2774 3.8C14.9309 3.8 15.3611 3.84246 15.6474 3.91421C15.921 3.98278 15.9996 4.06198 16.0284 4.09763C16.0661 4.14441 16.1244 4.25095 16.1603 4.53555C16.1969 4.82638 16.1996 5.19693 16.1996 5.72222C16.1996 6.25034 16.1988 6.62117 16.1639 6.9142C16.1297 7.20104 16.0726 7.30573 16.0371 7.35021C16.0112 7.38267 15.936 7.46139 15.661 7.53006C15.3732 7.60192 14.9391 7.64444 14.2774 7.64444C13.6156 7.64444 13.1815 7.60192 12.8938 7.53006C12.6188 7.46139 12.5435 7.38267 12.5176 7.35021C12.4822 7.30573 12.425 7.20104 12.3908 6.9142C12.3559 6.62117 12.3551 6.25034 12.3551 5.72222ZM14.2774 2.2C13.5807 2.2 12.9956 2.24259 12.5183 2.36222C12.0283 2.48503 11.5951 2.70354 11.2809 3.09322C10.9756 3.47177 10.8596 3.91817 10.807 4.33541C10.7552 4.74641 10.7551 5.22659 10.7551 5.72222L10.7551 5.77332V5.77335C10.7551 6.24815 10.755 6.70908 10.8021 7.10373C10.8516 7.51873 10.963 7.96698 11.2667 8.34782C11.58 8.74069 12.0147 8.95968 12.5061 9.0824C12.9848 9.20192 13.5737 9.24444 14.2774 9.24444C14.981 9.24444 15.5699 9.20192 16.0486 9.0824C16.54 8.95968 16.9747 8.74069 17.288 8.34782C17.5917 7.96698 17.7031 7.51873 17.7526 7.10373C17.7997 6.70908 17.7996 6.24816 17.7996 5.77336V5.77333L17.7996 5.72222C17.7996 5.22659 17.7995 4.74641 17.7477 4.33541C17.6951 3.91817 17.5791 3.47177 17.2738 3.09322C16.9596 2.70354 16.5264 2.48503 16.0364 2.36222C15.5591 2.24259 14.974 2.2 14.2774 2.2ZM3.83929 13.0911C3.80262 13.3819 3.79996 13.7525 3.79996 14.2778C3.79996 14.8059 3.80069 15.1767 3.83565 15.4697C3.86987 15.7566 3.92699 15.8613 3.96246 15.9058C3.98835 15.9382 4.06359 16.0169 4.33858 16.0856C4.62634 16.1575 5.06041 16.2 5.72218 16.2C6.38396 16.2 6.81802 16.1575 7.10579 16.0856C7.38078 16.0169 7.45601 15.9382 7.4819 15.9058C7.51737 15.8613 7.57449 15.7566 7.60871 15.4697C7.64367 15.1767 7.6444 14.8059 7.6444 14.2778C7.6444 13.7525 7.64174 13.3819 7.60508 13.0911C7.5692 12.8065 7.51092 12.6999 7.4732 12.6532C7.44445 12.6175 7.36583 12.5383 7.09225 12.4698C6.80596 12.398 6.37574 12.3555 5.72218 12.3555C5.06863 12.3555 4.6384 12.398 4.35211 12.4698C4.07853 12.5383 3.99992 12.6175 3.97116 12.6532C3.93344 12.6999 3.87517 12.8065 3.83929 13.0911ZM3.96313 10.9178C4.44041 10.7981 5.02556 10.7555 5.72218 10.7555C6.41881 10.7555 7.00395 10.7981 7.48124 10.9178C7.97123 11.0406 8.4044 11.2591 8.71865 11.6488C9.02394 12.0273 9.13991 12.4737 9.19251 12.891C9.24433 13.302 9.2444 13.7821 9.2444 14.2778L9.24441 14.3289V14.3289C9.24447 14.8037 9.24452 15.2646 9.19745 15.6593C9.14794 16.0743 9.03654 16.5225 8.73281 16.9034C8.41949 17.2962 7.98485 17.5152 7.49341 17.6379C7.01474 17.7575 6.42582 17.8 5.72218 17.8C5.01854 17.8 4.42962 17.7575 3.95095 17.6379C3.45951 17.5152 3.02487 17.2962 2.71155 16.9034C2.40783 16.5225 2.29642 16.0743 2.24692 15.6593C2.19984 15.2646 2.1999 14.8037 2.19996 14.3289L2.19996 14.2778C2.19996 13.7821 2.20003 13.302 2.25185 12.891C2.30446 12.4737 2.42042 12.0273 2.72571 11.6488C3.03997 11.2591 3.47313 11.0406 3.96313 10.9178ZM12.3551 14.2778C12.3551 13.7525 12.3578 13.3819 12.3945 13.0911C12.4303 12.8065 12.4886 12.6999 12.5263 12.6532C12.5551 12.6175 12.6337 12.5383 12.9073 12.4698C13.1936 12.398 13.6238 12.3555 14.2774 12.3555C14.9309 12.3555 15.3611 12.398 15.6474 12.4698C15.921 12.5383 15.9996 12.6175 16.0284 12.6532C16.0661 12.6999 16.1244 12.8065 16.1603 13.0911C16.1969 13.3819 16.1996 13.7525 16.1996 14.2778C16.1996 14.8059 16.1988 15.1767 16.1639 15.4697C16.1297 15.7566 16.0726 15.8613 16.0371 15.9058C16.0112 15.9382 15.936 16.0169 15.661 16.0856C15.3732 16.1575 14.9391 16.2 14.2774 16.2C13.6156 16.2 13.1815 16.1575 12.8938 16.0856C12.6188 16.0169 12.5435 15.9382 12.5176 15.9058C12.4822 15.8613 12.425 15.7566 12.3908 15.4697C12.3559 15.1767 12.3551 14.8059 12.3551 14.2778ZM14.2774 10.7555C13.5807 10.7555 12.9956 10.7981 12.5183 10.9178C12.0283 11.0406 11.5951 11.2591 11.2809 11.6488C10.9756 12.0273 10.8596 12.4737 10.807 12.891C10.7552 13.302 10.7551 13.7821 10.7551 14.2778L10.7551 14.3289V14.3289C10.7551 14.8037 10.755 15.2646 10.8021 15.6593C10.8516 16.0743 10.963 16.5225 11.2667 16.9034C11.58 17.2962 12.0147 17.5152 12.5061 17.6379C12.9848 17.7575 13.5737 17.8 14.2774 17.8C14.981 17.8 15.5699 17.7575 16.0486 17.6379C16.54 17.5152 16.9747 17.2962 17.288 16.9034C17.5917 16.5225 17.7031 16.0743 17.7526 15.6593C17.7997 15.2646 17.7996 14.8037 17.7996 14.3289V14.3289L17.7996 14.2778C17.7996 13.7821 17.7995 13.302 17.7477 12.891C17.6951 12.4737 17.5791 12.0273 17.2738 11.6488C16.9596 11.2591 16.5264 11.0406 16.0364 10.9178C15.5591 10.7981 14.974 10.7555 14.2774 10.7555Z" />
</svg>
