<svg width="751" height="201" viewBox="0 0 751 201" fill="none" xmlns="http://www.w3.org/2000/svg">
<g clip-path="url(#clip0_85_3779)">
<rect width="751" height="201" rx="30" fill="#F8F8F8"/>
<path d="M53.68 93.28H69.92V104H32.64V101.52C40.2667 92.6667 45.7067 86.2133 48.96 82.16C52.2667 78.0533 54.48 74.9067 55.6 72.72C56.7733 70.5333 57.36 68.48 57.36 66.56C57.36 64.6933 56.8 63.2 55.68 62.08C54.56 60.96 53.0933 60.4 51.28 60.4C49.4133 60.4 47.8933 60.9867 46.72 62.16C45.6 63.28 45.04 64.8 45.04 66.72V67.68H33.6V66.56C33.6 61.6 35.2 57.5467 38.4 54.4C41.6 51.2533 45.84 49.68 51.12 49.68C54.5333 49.68 57.6 50.4 60.32 51.84C63.04 53.2267 65.1467 55.2 66.64 57.76C68.1333 60.32 68.88 63.2 68.88 66.4C68.88 69.8133 67.84 73.4133 65.76 77.2C63.68 80.9867 59.6533 86.3467 53.68 93.28ZM99.9081 68.64C105.028 68.64 109.215 70.24 112.468 73.44C115.775 76.64 117.428 80.7733 117.428 85.84C117.428 91.44 115.535 96.0267 111.748 99.6C108.015 103.173 103.241 104.96 97.4281 104.96C91.4548 104.96 86.5748 103.173 82.7881 99.6C79.0548 96.0267 77.1881 91.44 77.1881 85.84C77.1881 80.88 79.0281 75.2533 82.7081 68.96L93.2681 50.72H105.828C104.441 53.12 102.575 56.3467 100.228 60.4C97.8815 64.4533 96.1215 67.4667 94.9481 69.44C96.6015 68.9067 98.2548 68.64 99.9081 68.64ZM97.3481 94.4C99.8548 94.4 101.908 93.6 103.508 92C105.108 90.4 105.908 88.3467 105.908 85.84C105.908 83.28 105.108 81.2 103.508 79.6C101.908 78 99.8548 77.2 97.3481 77.2C94.8415 77.2 92.7615 78 91.1081 79.6C89.5081 81.2 88.7081 83.28 88.7081 85.84C88.7081 88.3467 89.5081 90.4 91.1081 92C92.7615 93.6 94.8415 94.4 97.3481 94.4Z" fill="#8569D0"/>
<path d="M37.808 132.8H39.76L36.416 140.464C35.8293 141.84 35.2213 142.779 34.592 143.28C33.9733 143.781 33.1093 144.032 32 144.032H31.52V142.32H32.176C32.7413 142.32 33.1733 142.219 33.472 142.016C33.7707 141.803 34.0747 141.387 34.384 140.768L30.144 132.8H32.24L35.328 138.64L37.808 132.8ZM44.1208 144.208C42.8408 144.208 41.7634 143.776 40.8888 142.912C40.0248 142.037 39.5928 140.96 39.5928 139.68C39.5928 138.389 40.0248 137.312 40.8888 136.448C41.7634 135.584 42.8461 135.152 44.1368 135.152C45.1928 135.152 46.1101 135.451 46.8888 136.048C47.6674 136.645 48.1741 137.44 48.4088 138.432H46.6488C46.4248 137.941 46.0888 137.557 45.6408 137.28C45.1928 136.992 44.6861 136.848 44.1208 136.848C43.6194 136.848 43.1608 136.971 42.7448 137.216C42.3288 137.461 41.9981 137.803 41.7528 138.24C41.5181 138.667 41.4008 139.147 41.4008 139.68C41.4008 140.48 41.6621 141.152 42.1848 141.696C42.7074 142.24 43.3528 142.512 44.1208 142.512C44.6861 142.512 45.1874 142.368 45.6248 142.08C46.0728 141.792 46.4141 141.381 46.6488 140.848H48.4408C48.1954 141.861 47.6781 142.677 46.8888 143.296C46.1101 143.904 45.1874 144.208 44.1208 144.208ZM50.1859 135.36H57.7219V144H55.9619V136.976H51.9619V144H50.1859V135.36ZM68.4564 139.696C68.4564 139.856 68.4457 140.053 68.4244 140.288H61.4164C61.523 140.981 61.811 141.531 62.2804 141.936C62.7604 142.341 63.3524 142.544 64.0564 142.544C64.3977 142.544 64.7177 142.496 65.0164 142.4C65.315 142.293 65.5764 142.149 65.8004 141.968C66.035 141.776 66.227 141.547 66.3764 141.28H68.2484C67.907 142.197 67.363 142.917 66.6164 143.44C65.8697 143.952 65.0164 144.208 64.0564 144.208C62.787 144.208 61.7257 143.776 60.8724 142.912C60.0297 142.048 59.6084 140.971 59.6084 139.68C59.6084 138.389 60.0297 137.312 60.8724 136.448C61.7257 135.584 62.787 135.152 64.0564 135.152C64.9204 135.152 65.6884 135.36 66.3604 135.776C67.0324 136.181 67.5497 136.731 67.9124 137.424C68.275 138.107 68.4564 138.864 68.4564 139.696ZM64.0564 136.752C63.395 136.752 62.8297 136.939 62.3604 137.312C61.9017 137.685 61.5977 138.197 61.4484 138.848H66.6804C66.5737 138.411 66.3977 138.037 66.1524 137.728C65.907 137.408 65.603 137.168 65.2404 137.008C64.8884 136.837 64.4937 136.752 64.0564 136.752ZM79.5581 135.36H81.3021V144H70.3421V135.36H72.0861V142.368H74.9821V135.36H76.6781V142.368H79.5581V135.36ZM89.5865 135.36H91.3305V144H89.5865V140.384H85.5865V144H83.8265V135.36H85.5865V138.752H89.5865V135.36ZM101.138 142.928C100.263 143.781 99.1644 144.208 97.8418 144.208C96.5191 144.208 95.4151 143.781 94.5298 142.928C93.6551 142.064 93.2178 140.981 93.2178 139.68C93.2178 138.827 93.4151 138.053 93.8098 137.36C94.2151 136.667 94.7698 136.128 95.4738 135.744C96.1884 135.349 96.9778 135.152 97.8418 135.152C98.7058 135.152 99.4898 135.349 100.194 135.744C100.908 136.128 101.463 136.667 101.858 137.36C102.263 138.053 102.466 138.827 102.466 139.68C102.466 140.981 102.023 142.064 101.138 142.928ZM97.8418 142.512C98.3858 142.512 98.8711 142.395 99.2978 142.16C99.7244 141.915 100.055 141.579 100.29 141.152C100.535 140.715 100.658 140.224 100.658 139.68C100.658 138.859 100.391 138.181 99.8578 137.648C99.3351 137.115 98.6631 136.848 97.8418 136.848C97.0204 136.848 96.3431 137.115 95.8098 137.648C95.2871 138.181 95.0258 138.859 95.0258 139.68C95.0258 140.501 95.2871 141.179 95.8098 141.712C96.3431 142.245 97.0204 142.512 97.8418 142.512ZM115.621 135.36H116.997V144H115.557L115.381 142.944C114.549 143.787 113.509 144.208 112.261 144.208C110.97 144.208 109.893 143.776 109.029 142.912C108.176 142.048 107.749 140.971 107.749 139.68C107.749 138.379 108.176 137.301 109.029 136.448C109.893 135.584 110.97 135.152 112.261 135.152C113.53 135.152 114.581 135.579 115.413 136.432L115.621 135.36ZM110.357 141.712C110.901 142.245 111.578 142.512 112.389 142.512C113.21 142.512 113.882 142.245 114.405 141.712C114.938 141.168 115.205 140.491 115.205 139.68C115.205 138.859 114.938 138.181 114.405 137.648C113.882 137.115 113.21 136.848 112.389 136.848C111.856 136.848 111.37 136.971 110.933 137.216C110.506 137.461 110.17 137.803 109.925 138.24C109.68 138.667 109.557 139.147 109.557 139.68C109.557 140.491 109.824 141.168 110.357 141.712ZM127.034 142.32H128.154V146.176H126.538V144H120.234V146.176H118.618V142.32H119.53C119.775 142.117 119.962 141.808 120.09 141.392C120.228 140.976 120.351 140.347 120.458 139.504C120.564 138.651 120.703 137.269 120.874 135.36H127.034V142.32ZM122.442 136.928C122.324 138.667 122.191 139.915 122.042 140.672C121.892 141.429 121.674 141.979 121.386 142.32H125.29V136.928H122.442ZM137.137 135.36H138.513V144H137.073L136.897 142.944C136.065 143.787 135.025 144.208 133.777 144.208C132.486 144.208 131.409 143.776 130.545 142.912C129.691 142.048 129.265 140.971 129.265 139.68C129.265 138.379 129.691 137.301 130.545 136.448C131.409 135.584 132.486 135.152 133.777 135.152C135.046 135.152 136.097 135.579 136.929 136.432L137.137 135.36ZM131.873 141.712C132.417 142.245 133.094 142.512 133.905 142.512C134.726 142.512 135.398 142.245 135.921 141.712C136.454 141.168 136.721 140.491 136.721 139.68C136.721 138.859 136.454 138.181 135.921 137.648C135.398 137.115 134.726 136.848 133.905 136.848C133.371 136.848 132.886 136.971 132.449 137.216C132.022 137.461 131.686 137.803 131.441 138.24C131.195 138.667 131.073 139.147 131.073 139.68C131.073 140.491 131.339 141.168 131.873 141.712ZM141.045 135.36H148.581V144H146.821V136.976H142.821V144H141.045V135.36ZM157.94 135.36V136.96H154.9V144H153.172V136.96H150.116V135.36H157.94ZM165.834 135.36H166.826V144H165.13V138.512L160.522 144H159.498V135.36H161.21V140.8L165.834 135.36ZM173.998 135.152C174.851 135.152 175.619 135.349 176.302 135.744C176.984 136.128 177.518 136.667 177.902 137.36C178.286 138.053 178.478 138.827 178.478 139.68C178.478 140.981 178.051 142.064 177.198 142.928C176.355 143.781 175.288 144.208 173.998 144.208C172.888 144.208 171.934 143.861 171.134 143.168V147.104H169.358V135.36H170.558L170.894 136.416C171.726 135.573 172.76 135.152 173.998 135.152ZM171.838 141.712C172.371 142.245 173.043 142.512 173.854 142.512C174.675 142.512 175.352 142.245 175.886 141.712C176.419 141.168 176.686 140.491 176.686 139.68C176.686 138.869 176.419 138.197 175.886 137.664C175.352 137.12 174.68 136.848 173.87 136.848C173.336 136.848 172.851 136.971 172.414 137.216C171.976 137.461 171.635 137.803 171.39 138.24C171.155 138.667 171.038 139.147 171.038 139.68C171.038 140.491 171.304 141.168 171.838 141.712ZM187.669 142.928C186.794 143.781 185.696 144.208 184.373 144.208C183.05 144.208 181.946 143.781 181.061 142.928C180.186 142.064 179.749 140.981 179.749 139.68C179.749 138.827 179.946 138.053 180.341 137.36C180.746 136.667 181.301 136.128 182.005 135.744C182.72 135.349 183.509 135.152 184.373 135.152C185.237 135.152 186.021 135.349 186.725 135.744C187.44 136.128 187.994 136.667 188.389 137.36C188.794 138.053 188.997 138.827 188.997 139.68C188.997 140.981 188.554 142.064 187.669 142.928ZM184.373 142.512C184.917 142.512 185.402 142.395 185.829 142.16C186.256 141.915 186.586 141.579 186.821 141.152C187.066 140.715 187.189 140.224 187.189 139.68C187.189 138.859 186.922 138.181 186.389 137.648C185.866 137.115 185.194 136.848 184.373 136.848C183.552 136.848 182.874 137.115 182.341 137.648C181.818 138.181 181.557 138.859 181.557 139.68C181.557 140.501 181.818 141.179 182.341 141.712C182.874 142.245 183.552 142.512 184.373 142.512ZM196.745 139.488C196.948 139.573 197.129 139.685 197.289 139.824C197.46 139.952 197.604 140.107 197.721 140.288C197.838 140.459 197.929 140.651 197.993 140.864C198.057 141.077 198.089 141.296 198.089 141.52C198.089 142.224 197.833 142.816 197.321 143.296C196.809 143.765 196.169 144 195.401 144H190.889V135.36H195.337C196.062 135.36 196.654 135.568 197.113 135.984C197.582 136.389 197.817 136.917 197.817 137.568C197.817 137.973 197.721 138.347 197.529 138.688C197.337 139.029 197.076 139.296 196.745 139.488ZM196.057 137.856C196.057 137.557 195.956 137.317 195.753 137.136C195.561 136.955 195.305 136.864 194.985 136.864H192.633V138.848H194.985C195.305 138.848 195.561 138.757 195.753 138.576C195.956 138.395 196.057 138.155 196.057 137.856ZM195.081 142.448C195.433 142.448 195.716 142.347 195.929 142.144C196.153 141.941 196.265 141.685 196.265 141.376C196.265 141.056 196.153 140.795 195.929 140.592C195.705 140.389 195.417 140.288 195.065 140.288H192.633V142.448H195.081ZM207.324 135.36H208.7V144H207.26L207.084 142.944C206.252 143.787 205.212 144.208 203.964 144.208C202.673 144.208 201.596 143.776 200.732 142.912C199.879 142.048 199.452 140.971 199.452 139.68C199.452 138.379 199.879 137.301 200.732 136.448C201.596 135.584 202.673 135.152 203.964 135.152C205.233 135.152 206.284 135.579 207.116 136.432L207.324 135.36ZM202.06 141.712C202.604 142.245 203.281 142.512 204.092 142.512C204.913 142.512 205.585 142.245 206.108 141.712C206.641 141.168 206.908 140.491 206.908 139.68C206.908 138.859 206.641 138.181 206.108 137.648C205.585 137.115 204.913 136.848 204.092 136.848C203.559 136.848 203.073 136.971 202.636 137.216C202.209 137.461 201.873 137.803 201.628 138.24C201.383 138.667 201.26 139.147 201.26 139.68C201.26 140.491 201.527 141.168 202.06 141.712ZM216.993 135.36H218.737V144H216.993V140.384H212.993V144H211.233V135.36H212.993V138.752H216.993V135.36ZM227.024 135.36H228.768V144H227.024V140.384H223.024V144H221.264V135.36H223.024V138.752H227.024V135.36ZM234.879 137.92C235.829 137.92 236.597 138.203 237.183 138.768C237.77 139.333 238.063 140.069 238.063 140.976C238.063 141.872 237.77 142.603 237.183 143.168C236.597 143.723 235.829 144 234.879 144H231.295V135.36H233.039V137.92H234.879ZM239.567 135.36H241.343V144H239.567V135.36ZM234.671 142.464C235.151 142.464 235.541 142.331 235.839 142.064C236.138 141.787 236.287 141.424 236.287 140.976C236.287 140.677 236.218 140.416 236.079 140.192C235.951 139.957 235.765 139.776 235.519 139.648C235.274 139.52 234.991 139.456 234.671 139.456H233.039V142.464H234.671ZM250.977 144H248.977L246.817 140.704L244.641 144H242.689L245.761 139.536L242.929 135.36H244.913L246.833 138.272L248.801 135.36H250.753L247.873 139.44L250.977 144ZM35.152 165.208C33.872 165.208 32.7947 164.776 31.92 163.912C31.056 163.037 30.624 161.96 30.624 160.68C30.624 159.389 31.056 158.312 31.92 157.448C32.7947 156.584 33.8773 156.152 35.168 156.152C36.224 156.152 37.1413 156.451 37.92 157.048C38.6987 157.645 39.2053 158.44 39.44 159.432H37.68C37.456 158.941 37.12 158.557 36.672 158.28C36.224 157.992 35.7173 157.848 35.152 157.848C34.6507 157.848 34.192 157.971 33.776 158.216C33.36 158.461 33.0293 158.803 32.784 159.24C32.5493 159.667 32.432 160.147 32.432 160.68C32.432 161.48 32.6933 162.152 33.216 162.696C33.7387 163.24 34.384 163.512 35.152 163.512C35.7173 163.512 36.2187 163.368 36.656 163.08C37.104 162.792 37.4453 162.381 37.68 161.848H39.472C39.2267 162.861 38.7093 163.677 37.92 164.296C37.1413 164.904 36.2187 165.208 35.152 165.208ZM48.4971 163.928C47.6225 164.781 46.5238 165.208 45.2011 165.208C43.8785 165.208 42.7745 164.781 41.8891 163.928C41.0145 163.064 40.5771 161.981 40.5771 160.68C40.5771 159.827 40.7745 159.053 41.1691 158.36C41.5745 157.667 42.1291 157.128 42.8331 156.744C43.5478 156.349 44.3371 156.152 45.2011 156.152C46.0651 156.152 46.8491 156.349 47.5531 156.744C48.2678 157.128 48.8225 157.667 49.2171 158.36C49.6225 159.053 49.8251 159.827 49.8251 160.68C49.8251 161.981 49.3825 163.064 48.4971 163.928ZM45.2011 163.512C45.7451 163.512 46.2305 163.395 46.6571 163.16C47.0838 162.915 47.4145 162.579 47.6491 162.152C47.8945 161.715 48.0171 161.224 48.0171 160.68C48.0171 159.859 47.7505 159.181 47.2171 158.648C46.6945 158.115 46.0225 157.848 45.2011 157.848C44.3798 157.848 43.7025 158.115 43.1691 158.648C42.6465 159.181 42.3851 159.859 42.3851 160.68C42.3851 161.501 42.6465 162.179 43.1691 162.712C43.7025 163.245 44.3798 163.512 45.2011 163.512ZM58.2991 156.36V157.96H55.2591V165H53.5311V157.96H50.4751V156.36H58.2991ZM64.4978 156.152C65.3511 156.152 66.1191 156.349 66.8018 156.744C67.4844 157.128 68.0178 157.667 68.4018 158.36C68.7858 159.053 68.9778 159.827 68.9778 160.68C68.9778 161.981 68.5511 163.064 67.6978 163.928C66.8551 164.781 65.7884 165.208 64.4978 165.208C63.3884 165.208 62.4338 164.861 61.6338 164.168V168.104H59.8578V156.36H61.0578L61.3938 157.416C62.2258 156.573 63.2604 156.152 64.4978 156.152ZM62.3378 162.712C62.8711 163.245 63.5431 163.512 64.3538 163.512C65.1751 163.512 65.8524 163.245 66.3858 162.712C66.9191 162.168 67.1858 161.491 67.1858 160.68C67.1858 159.869 66.9191 159.197 66.3858 158.664C65.8524 158.12 65.1804 157.848 64.3698 157.848C63.8364 157.848 63.3511 157.971 62.9138 158.216C62.4764 158.461 62.1351 158.803 61.8898 159.24C61.6551 159.667 61.5378 160.147 61.5378 160.68C61.5378 161.491 61.8044 162.168 62.3378 162.712ZM76.7521 156.36H78.6561L74.6881 165.16C74.1868 166.259 73.6748 167.021 73.1521 167.448C72.6401 167.885 71.9521 168.104 71.0881 168.104H70.2081V166.504H70.9441C71.5095 166.504 71.9255 166.392 72.1921 166.168C72.4588 165.944 72.7521 165.48 73.0721 164.776L73.2641 164.376L69.5041 156.36H71.4401L74.1761 162.392L76.7521 156.36ZM87.0493 163.32H88.1693V167.176H86.5533V165H80.2493V167.176H78.6333V163.32H79.5453C79.7906 163.117 79.9773 162.808 80.1053 162.392C80.2439 161.976 80.3666 161.347 80.4733 160.504C80.5799 159.651 80.7186 158.269 80.8893 156.36H87.0493V163.32ZM82.4573 157.928C82.3399 159.667 82.2066 160.915 82.0573 161.672C81.9079 162.429 81.6893 162.979 81.4013 163.32H85.3053V157.928H82.4573ZM95.8365 156.36H97.5805V165H95.8365V161.384H91.8365V165H90.0765V156.36H91.8365V159.752H95.8365V156.36ZM106.444 156.36H107.436V165H105.74V159.512L101.132 165H100.108V156.36H101.82V161.8L106.444 156.36ZM115.407 165L112.815 161.32H111.743V165H109.967V156.36H111.743V159.704H112.831L115.183 156.36H117.279L114.351 160.504L117.599 165H115.407ZM125.825 163.928C124.951 164.781 123.852 165.208 122.529 165.208C121.207 165.208 120.103 164.781 119.217 163.928C118.343 163.064 117.905 161.981 117.905 160.68C117.905 159.827 118.103 159.053 118.497 158.36C118.903 157.667 119.457 157.128 120.161 156.744C120.876 156.349 121.665 156.152 122.529 156.152C123.393 156.152 124.177 156.349 124.881 156.744C125.596 157.128 126.151 157.667 126.545 158.36C126.951 159.053 127.153 159.827 127.153 160.68C127.153 161.981 126.711 163.064 125.825 163.928ZM122.529 163.512C123.073 163.512 123.559 163.395 123.985 163.16C124.412 162.915 124.743 162.579 124.977 162.152C125.223 161.715 125.345 161.224 125.345 160.68C125.345 159.859 125.079 159.181 124.545 158.648C124.023 158.115 123.351 157.848 122.529 157.848C121.708 157.848 121.031 158.115 120.497 158.648C119.975 159.181 119.713 159.859 119.713 160.68C119.713 161.501 119.975 162.179 120.497 162.712C121.031 163.245 121.708 163.512 122.529 163.512ZM134.901 160.488C135.104 160.573 135.285 160.685 135.445 160.824C135.616 160.952 135.76 161.107 135.877 161.288C135.995 161.459 136.085 161.651 136.149 161.864C136.213 162.077 136.245 162.296 136.245 162.52C136.245 163.224 135.989 163.816 135.477 164.296C134.965 164.765 134.325 165 133.557 165H129.045V156.36H133.493C134.219 156.36 134.811 156.568 135.269 156.984C135.739 157.389 135.973 157.917 135.973 158.568C135.973 158.973 135.877 159.347 135.685 159.688C135.493 160.029 135.232 160.296 134.901 160.488ZM134.213 158.856C134.213 158.557 134.112 158.317 133.909 158.136C133.717 157.955 133.461 157.864 133.141 157.864H130.789V159.848H133.141C133.461 159.848 133.717 159.757 133.909 159.576C134.112 159.395 134.213 159.155 134.213 158.856ZM133.237 163.448C133.589 163.448 133.872 163.347 134.085 163.144C134.309 162.941 134.421 162.685 134.421 162.376C134.421 162.056 134.309 161.795 134.085 161.592C133.861 161.389 133.573 161.288 133.221 161.288H130.789V163.448H133.237Z" fill="#1D1D1E"/>
<path d="M317.44 69.36C322.987 69.36 327.547 71.0133 331.12 74.32C334.693 77.6267 336.48 81.8133 336.48 86.88C336.48 92.0533 334.693 96.3733 331.12 99.84C327.547 103.253 323.12 104.96 317.84 104.96C314.32 104.96 311.12 104.213 308.24 102.72C305.413 101.173 303.2 99.0667 301.6 96.4C300 93.68 299.173 90.64 299.12 87.28H310.72C310.72 88.6133 311.013 89.8133 311.6 90.88C312.24 91.9467 313.093 92.8 314.16 93.44C315.28 94.0267 316.507 94.32 317.84 94.32C319.867 94.32 321.547 93.6267 322.88 92.24C324.267 90.8 324.96 89.0133 324.96 86.88C324.96 84.5867 324.213 82.72 322.72 81.28C321.227 79.84 319.333 79.12 317.04 79.12H302.08L301.04 77.68L304 50.8H332.8V61.04H313.04L312.08 69.36H317.44Z" fill="#8569D0"/>
<path d="M304.384 132.8H306.224V144H304.384V139.12H299.264V144H297.424V132.8H299.264V137.376H304.384V132.8ZM316.06 142.928C315.185 143.781 314.086 144.208 312.764 144.208C311.441 144.208 310.337 143.781 309.452 142.928C308.577 142.064 308.14 140.981 308.14 139.68C308.14 138.827 308.337 138.053 308.732 137.36C309.137 136.667 309.692 136.128 310.396 135.744C311.11 135.349 311.9 135.152 312.764 135.152C313.628 135.152 314.412 135.349 315.116 135.744C315.83 136.128 316.385 136.667 316.78 137.36C317.185 138.053 317.388 138.827 317.388 139.68C317.388 140.981 316.945 142.064 316.06 142.928ZM312.764 142.512C313.308 142.512 313.793 142.395 314.22 142.16C314.646 141.915 314.977 141.579 315.212 141.152C315.457 140.715 315.58 140.224 315.58 139.68C315.58 138.859 315.313 138.181 314.78 137.648C314.257 137.115 313.585 136.848 312.764 136.848C311.942 136.848 311.265 137.115 310.732 137.648C310.209 138.181 309.948 138.859 309.948 139.68C309.948 140.501 310.209 141.179 310.732 141.712C311.265 142.245 311.942 142.512 312.764 142.512ZM325.136 139.488C325.338 139.573 325.52 139.685 325.68 139.824C325.85 139.952 325.994 140.107 326.112 140.288C326.229 140.459 326.32 140.651 326.384 140.864C326.448 141.077 326.48 141.296 326.48 141.52C326.48 142.224 326.224 142.816 325.712 143.296C325.2 143.765 324.56 144 323.792 144H319.28V135.36H323.728C324.453 135.36 325.045 135.568 325.504 135.984C325.973 136.389 326.208 136.917 326.208 137.568C326.208 137.973 326.112 138.347 325.92 138.688C325.728 139.029 325.466 139.296 325.136 139.488ZM324.448 137.856C324.448 137.557 324.346 137.317 324.144 137.136C323.952 136.955 323.696 136.864 323.376 136.864H321.024V138.848H323.376C323.696 138.848 323.952 138.757 324.144 138.576C324.346 138.395 324.448 138.155 324.448 137.856ZM323.472 142.448C323.824 142.448 324.106 142.347 324.32 142.144C324.544 141.941 324.656 141.685 324.656 141.376C324.656 141.056 324.544 140.795 324.32 140.592C324.096 140.389 323.808 140.288 323.456 140.288H321.024V142.448H323.472ZM332.067 137.92C333.016 137.92 333.784 138.203 334.371 138.768C334.957 139.333 335.251 140.069 335.251 140.976C335.251 141.872 334.957 142.603 334.371 143.168C333.784 143.723 333.016 144 332.067 144H328.483V135.36H330.227V137.92H332.067ZM336.755 135.36H338.531V144H336.755V135.36ZM331.859 142.464C332.339 142.464 332.728 142.331 333.027 142.064C333.325 141.787 333.475 141.424 333.475 140.976C333.475 140.677 333.405 140.416 333.267 140.192C333.139 139.957 332.952 139.776 332.707 139.648C332.461 139.52 332.179 139.456 331.859 139.456H330.227V142.464H331.859ZM348.165 144H346.165L344.005 140.704L341.829 144H339.877L342.949 139.536L340.117 135.36H342.101L344.021 138.272L345.989 135.36H347.941L345.061 139.44L348.165 144ZM349.386 146.304V145.376C350.048 145.216 350.378 144.757 350.378 144H349.29V141.968H351.306V143.856C351.306 144.539 351.136 145.088 350.794 145.504C350.453 145.92 349.984 146.187 349.386 146.304ZM368.615 144H366.903L365.863 138.112L362.967 143.904H362.599L359.719 138.112L358.679 144H356.967L358.519 135.36H360.023L362.791 140.88L365.575 135.36H367.063L368.615 144ZM377.621 135.36H378.997V144H377.557L377.381 142.944C376.549 143.787 375.509 144.208 374.261 144.208C372.97 144.208 371.893 143.776 371.029 142.912C370.176 142.048 369.749 140.971 369.749 139.68C369.749 138.379 370.176 137.301 371.029 136.448C371.893 135.584 372.97 135.152 374.261 135.152C375.53 135.152 376.581 135.579 377.413 136.432L377.621 135.36ZM372.357 141.712C372.901 142.245 373.578 142.512 374.389 142.512C375.21 142.512 375.882 142.245 376.405 141.712C376.938 141.168 377.205 140.491 377.205 139.68C377.205 138.859 376.938 138.181 376.405 137.648C375.882 137.115 375.21 136.848 374.389 136.848C373.856 136.848 373.37 136.971 372.933 137.216C372.506 137.461 372.17 137.803 371.925 138.24C371.68 138.667 371.557 139.147 371.557 139.68C371.557 140.491 371.824 141.168 372.357 141.712ZM385.418 144.208C384.138 144.208 383.06 143.776 382.186 142.912C381.322 142.037 380.89 140.96 380.89 139.68C380.89 138.389 381.322 137.312 382.186 136.448C383.06 135.584 384.143 135.152 385.434 135.152C386.49 135.152 387.407 135.451 388.186 136.048C388.964 136.645 389.471 137.44 389.706 138.432H387.946C387.722 137.941 387.386 137.557 386.938 137.28C386.49 136.992 385.983 136.848 385.418 136.848C384.916 136.848 384.458 136.971 384.042 137.216C383.626 137.461 383.295 137.803 383.05 138.24C382.815 138.667 382.698 139.147 382.698 139.68C382.698 140.48 382.959 141.152 383.482 141.696C384.004 142.24 384.65 142.512 385.418 142.512C385.983 142.512 386.484 142.368 386.922 142.08C387.37 141.792 387.711 141.381 387.946 140.848H389.738C389.492 141.861 388.975 142.677 388.186 143.296C387.407 143.904 386.484 144.208 385.418 144.208ZM400.699 135.36H402.443V144H391.483V135.36H393.227V142.368H396.123V135.36H397.819V142.368H400.699V135.36ZM411.799 135.36V136.96H408.759V144H407.031V136.96H403.975V135.36H411.799ZM420.34 135.36H421.716V144H420.276L420.1 142.944C419.268 143.787 418.228 144.208 416.98 144.208C415.689 144.208 414.612 143.776 413.748 142.912C412.894 142.048 412.468 140.971 412.468 139.68C412.468 138.379 412.894 137.301 413.748 136.448C414.612 135.584 415.689 135.152 416.98 135.152C418.249 135.152 419.3 135.579 420.132 136.432L420.34 135.36ZM415.076 141.712C415.62 142.245 416.297 142.512 417.108 142.512C417.929 142.512 418.601 142.245 419.124 141.712C419.657 141.168 419.924 140.491 419.924 139.68C419.924 138.859 419.657 138.181 419.124 137.648C418.601 137.115 417.929 136.848 417.108 136.848C416.574 136.848 416.089 136.971 415.652 137.216C415.225 137.461 414.889 137.803 414.644 138.24C414.398 138.667 414.276 139.147 414.276 139.68C414.276 140.491 414.542 141.168 415.076 141.712ZM428.648 135.776C429.896 135.776 430.91 136.16 431.688 136.928C432.478 137.696 432.872 138.693 432.872 139.92C432.872 141.189 432.456 142.224 431.624 143.024C430.803 143.813 429.726 144.208 428.392 144.208C426.984 144.208 425.875 143.771 425.064 142.896C424.264 142.011 423.864 140.8 423.864 139.264C423.864 137.163 424.264 135.568 425.064 134.48C425.875 133.381 427.224 132.603 429.112 132.144L431.816 131.488V133.248L429.144 133.888C427.299 134.325 426.206 135.291 425.864 136.784C426.611 136.112 427.539 135.776 428.648 135.776ZM428.392 142.528C429.16 142.528 429.795 142.283 430.296 141.792C430.808 141.291 431.064 140.667 431.064 139.92C431.064 139.419 430.947 138.971 430.712 138.576C430.478 138.171 430.158 137.856 429.752 137.632C429.347 137.397 428.894 137.28 428.392 137.28C427.891 137.28 427.432 137.397 427.016 137.632C426.611 137.856 426.291 138.171 426.056 138.576C425.832 138.971 425.72 139.419 425.72 139.92C425.72 140.667 425.971 141.291 426.472 141.792C426.984 142.283 427.624 142.528 428.392 142.528ZM440.54 135.36H442.284V144H440.54V140.384H436.54V144H434.78V135.36H436.54V138.752H440.54V135.36ZM448.395 137.92C449.344 137.92 450.112 138.203 450.699 138.768C451.286 139.333 451.579 140.069 451.579 140.976C451.579 141.872 451.286 142.603 450.699 143.168C450.112 143.723 449.344 144 448.395 144H444.811V135.36H446.555V137.92H448.395ZM453.083 135.36H454.859V144H453.083V135.36ZM448.187 142.464C448.667 142.464 449.056 142.331 449.355 142.064C449.654 141.787 449.803 141.424 449.803 140.976C449.803 140.677 449.734 140.416 449.595 140.192C449.467 139.957 449.28 139.776 449.035 139.648C448.79 139.52 448.507 139.456 448.187 139.456H446.555V142.464H448.187ZM464.493 144H462.493L460.333 140.704L458.157 144H456.205L459.277 139.536L456.445 135.36H458.429L460.349 138.272L462.317 135.36H464.269L461.389 139.44L464.493 144ZM297.264 156.36H304.8V165H303.04V157.976H299.04V165H297.264V156.36ZM311.967 156.152C312.82 156.152 313.588 156.349 314.271 156.744C314.953 157.128 315.487 157.667 315.871 158.36C316.255 159.053 316.447 159.827 316.447 160.68C316.447 161.981 316.02 163.064 315.167 163.928C314.324 164.781 313.257 165.208 311.967 165.208C310.857 165.208 309.903 164.861 309.103 164.168V168.104H307.327V156.36H308.527L308.863 157.416C309.695 156.573 310.729 156.152 311.967 156.152ZM309.807 162.712C310.34 163.245 311.012 163.512 311.823 163.512C312.644 163.512 313.321 163.245 313.855 162.712C314.388 162.168 314.655 161.491 314.655 160.68C314.655 159.869 314.388 159.197 313.855 158.664C313.321 158.12 312.649 157.848 311.839 157.848C311.305 157.848 310.82 157.971 310.383 158.216C309.945 158.461 309.604 158.803 309.359 159.24C309.124 159.667 309.007 160.147 309.007 160.68C309.007 161.491 309.273 162.168 309.807 162.712ZM325.638 163.928C324.763 164.781 323.664 165.208 322.342 165.208C321.019 165.208 319.915 164.781 319.03 163.928C318.155 163.064 317.718 161.981 317.718 160.68C317.718 159.827 317.915 159.053 318.31 158.36C318.715 157.667 319.27 157.128 319.974 156.744C320.688 156.349 321.478 156.152 322.342 156.152C323.206 156.152 323.99 156.349 324.694 156.744C325.408 157.128 325.963 157.667 326.358 158.36C326.763 159.053 326.966 159.827 326.966 160.68C326.966 161.981 326.523 163.064 325.638 163.928ZM322.342 163.512C322.886 163.512 323.371 163.395 323.798 163.16C324.224 162.915 324.555 162.579 324.79 162.152C325.035 161.715 325.158 161.224 325.158 160.68C325.158 159.859 324.891 159.181 324.358 158.648C323.835 158.115 323.163 157.848 322.342 157.848C321.52 157.848 320.843 158.115 320.31 158.648C319.787 159.181 319.526 159.859 319.526 160.68C319.526 161.501 319.787 162.179 320.31 162.712C320.843 163.245 321.52 163.512 322.342 163.512ZM337.066 160.696C337.066 160.856 337.055 161.053 337.034 161.288H330.026C330.132 161.981 330.42 162.531 330.89 162.936C331.37 163.341 331.962 163.544 332.666 163.544C333.007 163.544 333.327 163.496 333.626 163.4C333.924 163.293 334.186 163.149 334.41 162.968C334.644 162.776 334.836 162.547 334.986 162.28H336.858C336.516 163.197 335.972 163.917 335.226 164.44C334.479 164.952 333.626 165.208 332.666 165.208C331.396 165.208 330.335 164.776 329.482 163.912C328.639 163.048 328.218 161.971 328.218 160.68C328.218 159.389 328.639 158.312 329.482 157.448C330.335 156.584 331.396 156.152 332.666 156.152C333.53 156.152 334.298 156.36 334.97 156.776C335.642 157.181 336.159 157.731 336.522 158.424C336.884 159.107 337.066 159.864 337.066 160.696ZM332.666 157.752C332.004 157.752 331.439 157.939 330.97 158.312C330.511 158.685 330.207 159.197 330.058 159.848H335.29C335.183 159.411 335.007 159.037 334.762 158.728C334.516 158.408 334.212 158.168 333.85 158.008C333.498 157.837 333.103 157.752 332.666 157.752ZM344.392 165L341.799 161.32H340.728V165H338.952V156.36H340.728V159.704H341.816L344.168 156.36H346.264L343.336 160.504L346.584 165H344.392ZM354.643 156.36V157.96H351.603V165H349.875V157.96H346.819V156.36H354.643ZM363.184 156.36H364.56V165H363.12L362.944 163.944C362.112 164.787 361.072 165.208 359.824 165.208C358.533 165.208 357.456 164.776 356.592 163.912C355.738 163.048 355.312 161.971 355.312 160.68C355.312 159.379 355.738 158.301 356.592 157.448C357.456 156.584 358.533 156.152 359.824 156.152C361.093 156.152 362.144 156.579 362.976 157.432L363.184 156.36ZM357.92 162.712C358.464 163.245 359.141 163.512 359.952 163.512C360.773 163.512 361.445 163.245 361.968 162.712C362.501 162.168 362.767 161.491 362.767 160.68C362.767 159.859 362.501 159.181 361.968 158.648C361.445 158.115 360.773 157.848 359.952 157.848C359.418 157.848 358.933 157.971 358.496 158.216C358.069 158.461 357.733 158.803 357.488 159.24C357.242 159.667 357.12 160.147 357.12 160.68C357.12 161.491 357.386 162.168 357.92 162.712Z" fill="#1D1D1E"/>
<path d="M544.72 50.8H564.24V104H553.04V60.8H544.72V50.8ZM596.188 104.96C591.815 104.96 588.001 103.84 584.748 101.6C581.495 99.36 578.988 96.16 577.228 92C575.468 87.84 574.588 82.96 574.588 77.36C574.588 68.8267 576.508 62.1067 580.348 57.2C584.241 52.24 589.521 49.76 596.188 49.76C602.855 49.76 608.108 52.24 611.948 57.2C615.788 62.1067 617.708 68.8267 617.708 77.36C617.708 85.84 615.761 92.56 611.868 97.52C608.028 102.48 602.801 104.96 596.188 104.96ZM588.668 90C590.428 92.88 592.935 94.32 596.188 94.32C599.441 94.32 601.921 92.88 603.628 90C605.335 87.0667 606.188 82.88 606.188 77.44C606.188 71.9467 605.308 67.7333 603.548 64.8C601.841 61.8667 599.388 60.4 596.188 60.4C592.935 60.4 590.428 61.8667 588.668 64.8C586.961 67.68 586.108 71.8667 586.108 77.36C586.108 82.8533 586.961 87.0667 588.668 90Z" fill="#8569D0"/>
<path d="M550.384 132.8H552.224V144H550.384V139.12H545.264V144H543.424V132.8H545.264V137.376H550.384V132.8ZM561.433 144L559.033 139.856H556.905V144H555.065V132.8H559.433C560.137 132.8 560.777 132.949 561.353 133.248C561.929 133.547 562.377 133.968 562.697 134.512C563.027 135.056 563.193 135.664 563.193 136.336C563.193 137.093 562.985 137.765 562.569 138.352C562.153 138.928 561.598 139.344 560.905 139.6L563.497 144H561.433ZM556.905 134.528V138.128H559.321C559.619 138.128 559.891 138.085 560.137 138C560.393 137.915 560.606 137.792 560.777 137.632C560.947 137.472 561.081 137.28 561.177 137.056C561.273 136.832 561.321 136.587 561.321 136.32C561.321 135.797 561.134 135.371 560.761 135.04C560.398 134.699 559.918 134.528 559.321 134.528H556.905ZM564.743 140.384V138.656H569.88V140.384H564.743ZM576.074 144.208C574.794 144.208 573.717 143.776 572.842 142.912C571.978 142.037 571.546 140.96 571.546 139.68C571.546 138.389 571.978 137.312 572.842 136.448C573.717 135.584 574.799 135.152 576.09 135.152C577.146 135.152 578.063 135.451 578.842 136.048C579.621 136.645 580.127 137.44 580.362 138.432H578.602C578.378 137.941 578.042 137.557 577.594 137.28C577.146 136.992 576.639 136.848 576.074 136.848C575.573 136.848 575.114 136.971 574.698 137.216C574.282 137.461 573.951 137.803 573.706 138.24C573.471 138.667 573.354 139.147 573.354 139.68C573.354 140.48 573.615 141.152 574.138 141.696C574.661 142.24 575.306 142.512 576.074 142.512C576.639 142.512 577.141 142.368 577.578 142.08C578.026 141.792 578.367 141.381 578.602 140.848H580.394C580.149 141.861 579.631 142.677 578.842 143.296C578.063 143.904 577.141 144.208 576.074 144.208ZM589.419 142.928C588.544 143.781 587.446 144.208 586.123 144.208C584.8 144.208 583.696 143.781 582.811 142.928C581.936 142.064 581.499 140.981 581.499 139.68C581.499 138.827 581.696 138.053 582.091 137.36C582.496 136.667 583.051 136.128 583.755 135.744C584.47 135.349 585.259 135.152 586.123 135.152C586.987 135.152 587.771 135.349 588.475 135.744C589.19 136.128 589.744 136.667 590.139 137.36C590.544 138.053 590.747 138.827 590.747 139.68C590.747 140.981 590.304 142.064 589.419 142.928ZM586.123 142.512C586.667 142.512 587.152 142.395 587.579 142.16C588.006 141.915 588.336 141.579 588.571 141.152C588.816 140.715 588.939 140.224 588.939 139.68C588.939 138.859 588.672 138.181 588.139 137.648C587.616 137.115 586.944 136.848 586.123 136.848C585.302 136.848 584.624 137.115 584.091 137.648C583.568 138.181 583.307 138.859 583.307 139.68C583.307 140.501 583.568 141.179 584.091 141.712C584.624 142.245 585.302 142.512 586.123 142.512ZM599.221 135.36V136.96H596.181V144H594.453V136.96H591.397V135.36H599.221ZM605.42 135.152C606.273 135.152 607.041 135.349 607.724 135.744C608.406 136.128 608.94 136.667 609.324 137.36C609.708 138.053 609.9 138.827 609.9 139.68C609.9 140.981 609.473 142.064 608.62 142.928C607.777 143.781 606.71 144.208 605.42 144.208C604.31 144.208 603.356 143.861 602.556 143.168V147.104H600.78V135.36H601.98L602.316 136.416C603.148 135.573 604.182 135.152 605.42 135.152ZM603.26 141.712C603.793 142.245 604.465 142.512 605.276 142.512C606.097 142.512 606.774 142.245 607.308 141.712C607.841 141.168 608.108 140.491 608.108 139.68C608.108 138.869 607.841 138.197 607.308 137.664C606.774 137.12 606.102 136.848 605.292 136.848C604.758 136.848 604.273 136.971 603.836 137.216C603.398 137.461 603.057 137.803 602.812 138.24C602.577 138.667 602.46 139.147 602.46 139.68C602.46 140.491 602.726 141.168 603.26 141.712ZM617.674 135.36H619.578L615.61 144.16C615.109 145.259 614.597 146.021 614.074 146.448C613.562 146.885 612.874 147.104 612.01 147.104H611.13V145.504H611.866C612.431 145.504 612.847 145.392 613.114 145.168C613.381 144.944 613.674 144.48 613.994 143.776L614.186 143.376L610.426 135.36H612.362L615.098 141.392L617.674 135.36ZM627.971 142.32H629.091V146.176H627.475V144H621.171V146.176H619.555V142.32H620.467C620.712 142.117 620.899 141.808 621.027 141.392C621.166 140.976 621.288 140.347 621.395 139.504C621.502 138.651 621.64 137.269 621.811 135.36H627.971V142.32ZM623.379 136.928C623.262 138.667 623.128 139.915 622.979 140.672C622.83 141.429 622.611 141.979 622.323 142.32H626.227V136.928H623.379ZM636.758 135.36H638.502V144H636.758V140.384H632.758V144H630.998V135.36H632.758V138.752H636.758V135.36ZM647.366 135.36H648.358V144H646.662V138.512L642.054 144H641.03V135.36H642.742V140.8L647.366 135.36ZM656.329 144L653.737 140.32H652.665V144H650.889V135.36H652.665V138.704H653.753L656.105 135.36H658.201L655.273 139.504L658.521 144H656.329ZM666.747 142.928C665.872 143.781 664.774 144.208 663.451 144.208C662.128 144.208 661.024 143.781 660.139 142.928C659.264 142.064 658.827 140.981 658.827 139.68C658.827 138.827 659.024 138.053 659.419 137.36C659.824 136.667 660.379 136.128 661.083 135.744C661.798 135.349 662.587 135.152 663.451 135.152C664.315 135.152 665.099 135.349 665.803 135.744C666.518 136.128 667.072 136.667 667.467 137.36C667.872 138.053 668.075 138.827 668.075 139.68C668.075 140.981 667.632 142.064 666.747 142.928ZM663.451 142.512C663.995 142.512 664.48 142.395 664.907 142.16C665.334 141.915 665.664 141.579 665.899 141.152C666.144 140.715 666.267 140.224 666.267 139.68C666.267 138.859 666 138.181 665.467 137.648C664.944 137.115 664.272 136.848 663.451 136.848C662.63 136.848 661.952 137.115 661.419 137.648C660.896 138.181 660.635 138.859 660.635 139.68C660.635 140.501 660.896 141.179 661.419 141.712C661.952 142.245 662.63 142.512 663.451 142.512ZM675.823 139.488C676.026 139.573 676.207 139.685 676.367 139.824C676.538 139.952 676.682 140.107 676.799 140.288C676.916 140.459 677.007 140.651 677.071 140.864C677.135 141.077 677.167 141.296 677.167 141.52C677.167 142.224 676.911 142.816 676.399 143.296C675.887 143.765 675.247 144 674.479 144H669.967V135.36H674.415C675.14 135.36 675.732 135.568 676.191 135.984C676.66 136.389 676.895 136.917 676.895 137.568C676.895 137.973 676.799 138.347 676.607 138.688C676.415 139.029 676.154 139.296 675.823 139.488ZM675.135 137.856C675.135 137.557 675.034 137.317 674.831 137.136C674.639 136.955 674.383 136.864 674.063 136.864H671.711V138.848H674.063C674.383 138.848 674.639 138.757 674.831 138.576C675.034 138.395 675.135 138.155 675.135 137.856ZM674.159 142.448C674.511 142.448 674.794 142.347 675.007 142.144C675.231 141.941 675.343 141.685 675.343 141.376C675.343 141.056 675.231 140.795 675.007 140.592C674.783 140.389 674.495 140.288 674.143 140.288H671.711V142.448H674.159Z" fill="#1D1D1E"/>
</g>
<defs>
<clipPath id="clip0_85_3779">
<rect width="751" height="201" rx="30" fill="white"/>
</clipPath>
</defs>
</svg>
