<svg width="519" height="216" viewBox="0 0 519 216" fill="none" xmlns="http://www.w3.org/2000/svg">
<g filter="url(#filter0_d_64_5976)">
<g clip-path="url(#clip0_64_5976)">
<rect x="30" y="25" width="459" height="156" rx="20" fill="white"/>
<path d="M-157.768 -459.524C-55.53 -286.61 -133.089 -316.765 -159.33 -50.0727C-183.57 196.291 60.9493 178.669 222.15 77.6776C317.053 23.6646 342.143 161.818 459.694 94.822C577.245 27.8256 457.401 -129.206 636.59 -235.641M-128.058 -450.906C-34.8459 -292.164 -104.802 -317.273 -129.204 -71.2381C-151.569 154.882 74.4768 141.596 223.344 47.9408C311.745 -2.85135 331.548 126.476 439.893 64.7248C550.655 1.59359 445.052 -145.355 609.5 -244.225M-98.3466 -442.289C-14.1616 -297.717 -76.5141 -317.781 -99.0783 -92.4038C-119.568 113.474 88.0045 104.523 224.539 18.2037C306.437 -29.3677 320.953 91.1331 420.092 34.6273C524.065 -24.6387 432.703 -161.505 582.411 -252.809M-68.6357 -433.673C6.52265 -303.272 -48.2264 -318.29 -68.9525 -113.571C-87.5677 72.0639 101.532 67.4487 225.733 -11.5345C301.13 -55.885 310.358 55.7893 400.291 4.5287C497.475 -50.872 420.354 -177.655 555.321 -261.394M-38.9249 -425.059C27.2069 -308.828 -19.9388 -318.8 -38.8268 -134.738C-55.567 30.653 115.06 30.3732 226.927 -41.2739C295.822 -82.4036 299.763 20.4442 380.49 -25.571C470.885 -77.1065 408.005 -193.807 528.231 -269.981M233.164 -262.001C207.63 -241.706 166.315 -271.774 169.931 -295.465C175.952 -334.922 169.874 -360.27 166.928 -377.307C159.085 -422.675 196.053 -446.812 233.028 -442.779C270.002 -438.745 259.877 -413.464 306.918 -421.596C364.113 -431.484 363.084 -366.716 342.345 -338.465C325.303 -315.248 343.643 -309.385 300.772 -284.906C284.487 -275.608 256.545 -280.585 233.164 -262.001ZM227.986 -71.7986C128.452 -7.48758 -23.7014 -11.5432 -8.83616 -156.692C8.21381 -320.095 47.756 -315.169 -9.34917 -417.229C-68.6805 -532.167 85.6873 -665.362 205.853 -610.536C326.019 -555.71 301.484 -509.798 414.686 -527.247C532.505 -545.493 608.173 -350.25 501.007 -279.353C395.521 -210.744 444.16 -104.126 360.554 -56.4561C289.033 -15.6861 290.379 -109.708 227.986 -71.7986ZM228.885 -103.252C141.685 -46.277 8.00405 -54.668 20.9943 -179.573C36.2062 -322.319 68.1449 -322.439 20.0665 -410.328C-30.6835 -513.672 104.118 -628.69 210.418 -582.33C316.719 -535.969 294.585 -493.496 396.761 -509.391C504.475 -526.245 566.383 -353.443 473.622 -289.653C382.876 -228.61 417.274 -132.075 340.458 -88.2699C278.143 -52.7452 284.776 -137.94 228.885 -103.252ZM229.776 -134.757C154.909 -85.1181 39.7012 -97.8446 50.8165 -202.507C64.1903 -324.595 88.5256 -329.76 49.4738 -403.479C7.30516 -495.228 122.54 -592.07 214.975 -554.175C307.41 -516.28 287.678 -477.245 378.827 -491.588C476.438 -507.048 524.586 -356.687 446.229 -300.005C370.224 -246.528 390.381 -160.075 320.353 -120.135C267.245 -89.8559 279.165 -166.224 229.776 -134.757ZM230.655 -166.337C168.122 -124.034 71.387 -141.096 80.6273 -225.515C92.1631 -326.946 108.895 -337.156 78.8697 -396.705C45.2825 -476.858 140.95 -555.524 219.521 -526.094C298.091 -496.665 280.76 -461.068 360.882 -473.859C448.389 -487.926 482.776 -360.006 424.688 -306.259C363.424 -260.347 363.476 -188.15 300.238 -152.075C256.335 -127.041 273.542 -194.583 230.655 -166.337ZM231.518 -198.026C181.318 -163.059 103.056 -184.457 110.422 -248.633C120.119 -329.406 129.248 -344.662 108.249 -390.04C83.2433 -458.598 159.345 -519.088 224.05 -498.124C288.754 -477.159 273.826 -445.002 342.921 -456.239C420.324 -468.913 440.951 -363.435 397.267 -316.796C350.744 -278.449 336.554 -216.334 280.105 -184.125C245.409 -164.336 267.903 -223.052 231.518 -198.026ZM232.357 -229.883C194.49 -202.253 134.702 -227.985 140.192 -271.919C148.052 -332.034 149.576 -352.336 137.605 -383.544C121.18 -440.507 177.715 -482.821 228.554 -470.321C279.394 -457.822 266.867 -429.103 324.935 -438.788C392.234 -450.069 404.965 -362.86 369.822 -327.5C338.039 -296.719 370.62 -280.772 320.96 -252.428C295.469 -237.885 262.24 -251.688 232.357 -229.883Z" stroke="url(#paint0_linear_64_5976)" stroke-opacity="0.5" stroke-width="11"/>
<path d="M327.328 20.9827L340.703 125.787L506.615 130.19L500.263 10.8967L327.328 20.9827Z" fill="white" stroke="#202124" stroke-width="0.75" stroke-miterlimit="10"/>
<path d="M338.95 50.8755L380.767 50.0532" stroke="#8569D0" stroke-miterlimit="10"/>
<path d="M339.345 59.5691L381.162 58.7468" stroke="#8569D0" stroke-miterlimit="10"/>
<path d="M337.303 64.4905L376.168 63.7198" stroke="#8569D0" stroke-miterlimit="10"/>
<path d="M485.831 25.4722C488.621 25.1642 490.655 22.8522 490.374 20.3081C490.093 17.7639 487.604 15.9512 484.814 16.2592C482.024 16.5672 479.99 18.8793 480.271 21.4234C480.552 23.9675 483.041 25.7802 485.831 25.4722Z" fill="#8569D0" stroke="#8569D0" stroke-miterlimit="10"/>
<path d="M363.776 32.8211C364.717 32.7173 364.567 31.3624 363.626 31.4663C362.685 31.5702 362.835 32.925 363.776 32.8211Z" fill="#202124"/>
<path d="M448.25 35.6093C463.683 35.0941 479.066 34.5844 494.499 34.0692C494.747 34.0418 494.712 33.7257 494.46 33.7079C479.027 34.2231 463.643 34.7328 448.21 35.2481C447.962 35.2754 447.997 35.5915 448.25 35.6093Z" fill="#202124"/>
<path d="M445.446 41.0842C456.59 40.7682 467.739 40.4974 478.883 40.1814C479.13 40.1541 479.096 39.8379 478.843 39.8201C467.699 40.1361 456.55 40.4069 445.406 40.7229C445.159 40.7502 445.194 41.0664 445.446 41.0842Z" fill="#202124"/>
<path d="M454.578 46.1562C467.738 45.9376 480.898 45.7191 494.008 45.506C494.256 45.4786 494.221 45.1625 493.968 45.1447C480.808 45.3632 467.648 45.5818 454.538 45.7949C454.34 45.8167 454.375 46.1329 454.578 46.1562Z" fill="#202124"/>
<path d="M343.332 124.171C345.506 123.885 347.72 123.961 349.865 124.318C350.117 124.336 350.181 124.009 349.929 123.991C347.729 123.594 345.52 123.564 343.297 123.855C343.044 123.837 343.084 124.198 343.332 124.171Z" fill="#202124"/>
<path d="M354.154 124.577C358.433 124.287 362.703 124.364 366.958 124.763C367.21 124.781 367.275 124.454 367.022 124.436C362.718 124.043 358.448 123.965 354.114 124.215C353.867 124.243 353.907 124.604 354.154 124.577Z" fill="#202124"/>
<path d="M386.656 36.649L334.82 38.4402L333.409 25.6594L385.245 23.8682L386.656 36.649Z" fill="#202124"/>
<path d="M424.58 121.517L364.9 100.385C363.124 88.8953 341.979 74.676 313.56 66.6668C281.423 57.6468 252.121 60.0083 248.137 72.0236C244.153 84.0388 267.005 101.056 299.141 110.076C324.928 117.323 348.843 117.208 359.369 110.712C359.943 111.087 360.636 111.394 361.333 111.595L421.051 132.764C424.46 133.658 427.996 131.849 428.956 128.746C429.917 125.643 427.99 122.411 424.58 121.517Z" fill="#8569D0"/>
<path d="M350.643 101.595C352.917 94.2064 334.996 83.0559 310.615 76.6898C286.234 70.3236 264.625 71.1524 262.351 78.541C260.076 85.9296 277.997 97.08 302.378 103.446C326.759 109.812 348.368 108.984 350.643 101.595Z" fill="white" stroke="#202124" stroke-width="0.75" stroke-miterlimit="10"/>
<path d="M338.473 38.773C338.975 38.272 339.679 37.5971 340.633 36.8848C340.949 36.6581 342.054 35.8647 343.674 35.097C345.74 34.1502 346.486 34.2352 346.854 34.3099C347.317 34.4283 347.894 34.691 347.912 34.9886C347.895 35.0852 347.827 35.2745 346.749 35.7099C345.75 36.0886 345.146 36.1839 344.604 36.3192C344.022 36.4828 343.203 36.8164 342.323 37.5042C342.59 37.7644 342.89 38.0284 343.229 38.264C344.174 38.9956 345.096 39.4617 345.899 39.8159C345.758 40.0297 345.488 40.3929 345.059 40.6724C344.63 40.9519 344.201 41.0344 343.382 41.1709C342.456 41.3281 341.993 41.4067 341.682 41.2071C341.212 40.9238 341.296 40.4408 341.001 39.9475C340.661 39.5148 340.027 38.9829 338.473 38.773Z" fill="white"/>
<path d="M307.805 52.7047C310.364 52.472 313.001 52.1827 315.723 51.8048C319.854 51.2597 323.759 50.6234 327.501 49.9357C329.812 47.1521 332.387 44.2349 335.273 41.3202C336.443 40.143 337.568 39.0263 338.721 37.9455C339.178 38.0958 340.12 38.4324 340.86 39.3358C341.256 39.8395 341.483 40.324 341.596 40.6645C341.304 41.1554 340.804 42.0485 340.169 43.1229C338.187 46.5991 335.888 49.9083 334.165 53.4795C333.677 54.505 333.228 55.5023 332.126 56.4905C331.27 57.2449 330.369 57.6665 328.674 58.2924C326.348 59.1741 325.204 59.6008 323.446 59.9902C321.148 60.5146 316.855 61.9914 308.121 66.2056C307.506 65.5785 307.064 64.9386 306.719 64.3423C304.116 59.6558 307.154 53.8754 307.805 52.7047Z" fill="white"/>
<path d="M304.705 53.3393C312.372 52.5157 320.02 51.2561 327.642 49.596C327.819 49.5776 327.807 49.2869 327.623 49.3408C320 51.0009 312.353 52.2605 304.686 53.0841C304.542 53.1059 304.562 53.3611 304.705 53.3393Z" fill="#202124"/>
<path d="M327.591 50.4953C331.017 46.2992 334.677 42.2244 338.489 38.3621C338.611 38.2417 338.415 38.0909 338.325 38.2144C334.513 42.0767 330.859 46.1191 327.426 50.3476C327.298 50.5004 327.501 50.6188 327.591 50.4953Z" fill="#202124"/>
<path d="M338.701 38.6564C339.905 39.0417 340.813 39.8756 341.313 41.0455C341.384 41.1883 341.611 41.0735 341.539 40.9307C341.046 39.7274 340.086 38.8206 338.816 38.429C338.664 38.3467 338.542 38.6074 338.701 38.6564Z" fill="#202124"/>
<path d="M341.629 39.9663C339.593 43.3819 337.55 46.8301 335.514 50.2457C334.503 51.9207 333.575 53.6704 332.506 55.3065C331.238 57.258 329.346 57.9151 327.303 58.6582C320.939 61.0657 314.358 62.9186 308.52 66.7782C308.369 66.8643 308.53 67.0464 308.648 66.9573C315.141 62.6582 322.5 61.0455 329.481 58.0614C332.498 56.7753 333.639 53.8433 335.219 51.1864C337.42 47.4525 339.648 43.7544 341.849 40.0205C341.935 39.9283 341.721 39.8414 341.629 39.9663Z" fill="#202124"/>
<path d="M339.719 37.9941C341.068 36.7452 346.252 32.7621 347.731 35.001C347.803 35.1455 348.046 34.962 347.933 34.8481C347.18 33.7101 345.759 34.1607 344.537 34.6301C342.692 35.3159 341.03 36.432 339.554 37.8064C339.466 37.9013 339.598 38.0859 339.719 37.9941Z" fill="#202124"/>
<path d="M345.187 36.4534C346.144 36.269 347.036 35.9066 347.869 35.3325C348.024 35.244 347.859 35.0566 347.737 35.1483C346.944 35.6918 346.093 36.0236 345.169 36.2112C344.995 36.2292 345.006 36.505 345.187 36.4534Z" fill="#202124"/>
<path d="M341.638 41.5118C342.851 41.4882 344.038 41.2499 345.213 40.7274C345.363 40.6712 345.276 40.4152 345.12 40.5061C343.985 40.9971 342.866 41.2421 341.687 41.2689C341.518 41.2525 341.462 41.53 341.638 41.5118Z" fill="#202124"/>
<path d="M294.763 53.1511C294.177 53.9924 293.369 55.2088 292.55 56.7435C291.063 59.4992 289.993 62.3321 288.737 67.6443C287.891 71.1217 286.997 74.98 286.364 80.5035C285.868 85.0119 285.498 91.022 286.002 98.1118C289.417 99.4652 293.114 100.764 297.128 101.978C305.052 104.369 312.411 105.851 318.916 106.763C319.231 103.491 319.528 100.824 319.723 99.1101C321.26 86.1919 323.685 72.8246 324.089 66.8475C324.305 63.4133 324.456 59.8496 324.456 59.8496C324.48 59.0857 324.5 58.481 324.51 58.1627C323.278 57.3898 321.63 56.4761 319.563 55.5806C315.324 53.7544 311.644 53.0296 309.767 52.7138C303.51 51.7143 298.177 52.4016 294.763 53.1511Z" fill="white"/>
<path d="M294.795 53.248C304.542 51.1426 314.903 52.7214 323.374 57.6481C323.511 57.7163 323.657 57.5298 323.52 57.4616C314.98 52.5008 304.55 50.888 294.732 53.0229C294.592 53.0502 294.619 53.2742 294.795 53.248Z" fill="#202124"/>
<path d="M324.359 58.5086C324.023 73.1863 321.56 87.6995 319.064 102.18C319.024 102.338 319.303 102.347 319.343 102.189C321.84 87.7086 324.267 73.1942 324.638 58.5176C324.609 58.3573 324.364 58.3494 324.359 58.5086Z" fill="#202124"/>
<path d="M294.481 53.2376C290.405 59.3186 288.599 66.5247 287.255 73.4908C285.865 80.7742 285.414 88.2154 285.803 95.6201C285.798 95.7793 286.077 95.7883 286.082 95.6292C285.693 88.2563 286.143 80.8469 287.532 73.5636C288.84 66.6281 290.646 59.422 294.721 53.3728C294.796 53.216 294.59 53.1137 294.481 53.2376Z" fill="#202124"/>
<path d="M349.673 92.4674C350.1 92.2264 350.2 92.3889 350.976 92.1592C352.704 91.6736 352.909 90.7562 354.346 90.6116C354.696 90.5911 355.223 90.5126 355.561 90.8422C355.934 91.2048 355.811 91.7743 355.807 91.8698C356.504 91.9561 357.481 91.9878 358.607 91.7376C359.557 91.5454 360.02 91.2736 360.362 91.5078C360.532 91.6407 360.699 91.8692 360.388 93.9302C360.113 95.9286 359.893 96.2719 359.534 96.5471C359.212 96.7915 358.895 96.8768 358.19 97.0451C357.098 97.3283 356.153 97.3614 355.559 97.374C354.86 97.3832 353.254 97.3311 351.282 96.7255C350.521 96.5096 349.52 96.1266 348.388 95.4845C348.424 94.3705 348.643 93.0075 349.673 92.4674Z" fill="white"/>
<path d="M323.779 58.076C324.634 58.6454 325.161 59.6502 326.18 61.6269C326.837 62.9227 327.223 63.9548 327.413 64.5345C328.214 66.7909 329.296 68.9608 330.238 71.158C331.082 73.1609 332.315 76.0685 333.873 79.7514C335.339 80.8822 336.804 82.045 338.233 83.2065C342.117 86.2957 345.931 89.3508 349.641 92.4025C349.664 92.7537 349.61 93.3574 349.344 94.0179C349.038 94.8045 348.533 95.2979 348.245 95.5753C346.797 94.9549 344.727 94.1549 342.2 93.4038C339.329 92.5141 338.249 92.4153 334.096 91.1973C330.116 90.0167 328.979 89.5019 327.916 88.8939C325.789 87.6778 324.539 86.3628 324.134 85.9354C322.782 84.5215 322.159 83.2586 321.467 81.9617C318.996 77.357 319.237 78.5437 316.836 73.9414C315.552 71.51 314.109 68.5956 312.681 65.2037C312.534 64.3705 312.473 62.9984 313.147 61.6183C315.013 57.9509 321.18 56.3348 323.779 58.076Z" fill="white"/>
<path d="M323.707 58.1689C325.267 59.6214 325.975 61.4924 326.788 63.335C327.567 65.1764 328.347 66.986 329.126 68.8275C330.685 72.4785 332.243 76.1614 333.766 79.8113C333.832 79.9408 334.078 79.8851 334.013 79.7555C332.292 75.7169 330.572 71.6464 328.886 67.6089C327.555 64.4751 326.568 60.4284 323.922 57.9847C323.786 57.8847 323.571 58.037 323.707 58.1689Z" fill="#202124"/>
<path d="M333.834 79.877C339.114 84.063 344.357 88.3115 349.529 92.6214C349.665 92.7214 349.845 92.5679 349.708 92.4679C344.537 88.158 339.294 83.9095 334.014 79.7236C333.878 79.5917 333.698 79.777 333.834 79.877Z" fill="#202124"/>
<path d="M312.381 64.7798C314.004 68.5923 315.804 72.3467 317.818 75.9806C319.733 79.4202 321.676 83.0519 324.196 86.1605C326.548 89.0726 330.77 90.3248 334.369 91.3974C338.833 92.7211 343.414 93.6981 347.762 95.3686C347.935 95.4379 347.978 95.1844 347.839 95.1481C343.906 93.6185 339.744 92.6551 335.693 91.5041C331.642 90.3531 326.827 89.0817 324.243 85.7797C321.827 82.7063 319.914 79.2031 318.032 75.8283C316.019 72.1944 314.253 68.4729 312.628 64.6922C312.561 64.5945 312.315 64.6502 312.381 64.7798Z" fill="#202124"/>
<path d="M349.425 92.5865C349.529 93.705 349.075 94.7736 348.176 95.541C348.068 95.6331 348.237 95.8298 348.346 95.7058C349.281 94.8759 349.771 93.7766 349.669 92.5944C349.675 92.4353 349.395 92.4262 349.425 92.5865Z" fill="#202124"/>
<path d="M349.67 92.5625C350.441 92.4919 351.113 92.2588 351.787 91.9302C352.214 91.721 355.527 89.7574 355.513 91.2545C355.508 91.4136 355.787 91.4227 355.792 91.2635C355.82 90.4042 354.914 90.3429 354.174 90.5419C352.586 91.0002 351.429 92.2053 349.713 92.3408C349.503 92.3341 349.495 92.5887 349.67 92.5625Z" fill="#202124"/>
<path d="M348.798 95.7523C348.972 95.7579 348.98 95.5033 348.806 95.4976C348.632 95.492 348.624 95.7466 348.798 95.7523Z" fill="#202124"/>
<path d="M348.798 95.7523C348.972 95.7579 348.98 95.5033 348.806 95.4976C348.632 95.492 348.624 95.7466 348.798 95.7523Z" fill="#202124"/>
<path d="M348.483 95.7743C351.787 97.3153 355.433 98.0389 358.997 96.9438C359.139 96.8846 359.111 96.6607 358.935 96.7187C355.406 97.7831 351.865 97.0629 348.63 95.556C348.492 95.4878 348.347 95.6743 348.483 95.7743Z" fill="#202124"/>
<path d="M354.443 91.9208C356.432 92.0171 358.426 91.9225 360.393 91.604C360.569 91.5778 360.506 91.3528 360.331 91.379C358.399 91.6986 356.439 91.7943 354.45 91.698C354.276 91.6923 354.269 91.9151 354.443 91.9208Z" fill="#202124"/>
<path d="M355.692 93.2677C357.262 93.3505 358.774 93.049 360.194 92.3623C360.336 92.3031 360.203 92.0758 360.061 92.1668C358.712 92.824 357.234 93.1265 355.7 93.0449C355.561 93.0085 355.553 93.2631 355.692 93.2677Z" fill="#202124"/>
<path d="M355.926 94.6773C357.604 94.668 359.122 94.1756 360.377 93.1967C360.52 93.1058 360.316 92.908 360.208 93.0319C358.99 93.9483 357.541 94.443 355.934 94.4545C355.794 94.45 355.786 94.7046 355.926 94.6773Z" fill="#202124"/>
<path d="M357.065 96.18C358.26 95.9639 359.36 95.4579 360.257 94.7223C360.4 94.6314 360.197 94.4336 360.088 94.5575C359.192 95.2613 358.163 95.7377 357.003 95.955C356.827 95.9811 356.89 96.2062 357.065 96.18Z" fill="#202124"/>
<path d="M311.989 43.4507C312.335 43.5575 312.887 43.7666 313.363 44.1962C314.145 44.8588 314.363 45.6625 314.581 46.498C314.831 47.3983 315.017 48.1371 314.778 49.0215C314.304 50.7267 312.53 51.5613 312.14 51.7398C312.171 51.8365 312.391 52.6083 311.888 53.038C311.385 53.4678 310.519 53.2167 310.104 53.1076C308.719 52.7122 307.742 51.5972 307.382 50.8208C306.502 48.8805 308.281 45.752 311.989 43.4507Z" fill="white"/>
<path d="M313.511 45.8881C313.63 45.8304 313.608 45.5821 313.462 45.3335C313.315 45.085 313.1 44.9303 312.981 44.988C312.863 45.0457 312.885 45.294 313.031 45.5426C313.177 45.7912 313.392 45.9459 313.511 45.8881Z" fill="#202124"/>
<path d="M310.477 44.8355C310.834 44.5922 311.3 44.225 311.772 43.6986C312.28 43.1097 312.787 42.5526 312.884 41.7273C312.927 41.4738 313.026 40.5849 312.38 40.0223C312.039 39.7563 311.692 39.6813 311.519 39.6438C309.851 39.3667 307.732 41.1141 307.445 41.3597C306.832 40.8619 305.773 40.1266 304.247 39.7584C303.346 39.538 302.446 39.2858 301.422 39.6031C300.258 39.9477 299.214 40.9015 298.933 42.0076C298.652 43.1455 299.369 43.6468 298.882 44.6506C298.695 45.0269 298.48 45.211 297.549 45.9137C295.864 47.2291 295.039 47.8715 294.785 48.1818C293.87 49.4585 293.86 50.8283 293.835 51.5922C293.822 53.0893 294.309 54.2203 294.538 54.7057C294.866 55.3536 295.752 57.1348 297.954 58.1939C300.087 59.219 302.124 58.9027 302.967 58.7708C305.812 58.3214 307.542 56.6888 308.912 55.3631C309.994 54.3468 310.968 53.3906 311.402 51.8753C311.719 50.7067 311.577 49.7143 311.344 48.2729C311.145 46.8645 310.799 45.6744 310.477 44.8355Z" fill="#202124"/>
<path d="M312.023 43.4837C315.746 45.0701 315.656 51.0574 311.403 51.8434C311.227 51.8696 311.29 52.0946 311.465 52.0685C315.965 51.2267 316.099 44.9541 312.169 43.2972C312.033 43.1972 311.886 43.4155 312.023 43.4837Z" fill="#202124"/>
<path d="M302.304 39.3448C300.761 39.5177 299.407 40.3341 298.908 41.7199C298.64 42.444 298.864 43.0567 298.876 43.7581C298.895 45.3518 297.2 45.9022 296.053 46.789C293.042 49.1129 293.215 53.4837 295.43 56.2957C297.947 59.4999 302.34 59.7699 305.862 57.8449C309.882 55.6493 312.084 52.3752 311.527 48.0238C310.938 43.5439 307.431 39.6385 302.304 39.3448C302.13 39.3391 302.122 39.5619 302.296 39.5994C308.05 39.9454 311.556 44.9659 311.325 49.929C311.2 52.697 309.877 54.7251 307.549 56.4658C305.471 58.0552 302.739 59.3367 299.961 58.8005C294.579 57.7656 291.942 50.7022 296.04 47.1709C296.795 46.5263 299.126 45.7735 299.405 44.6992C299.565 44.0672 298.995 43.3477 299.051 42.6804C299.142 40.9628 300.647 39.8008 302.435 39.6039C302.542 39.5437 302.48 39.3186 302.304 39.3448Z" fill="#202124"/>
<path d="M307.547 41.427C308.459 40.2458 312.006 38.6403 312.739 40.7989C313.25 42.2811 311.52 43.9137 310.375 44.7368C310.232 44.8278 310.437 44.9937 310.544 44.9017C311.833 43.9557 314.256 41.4216 312.453 39.9293C310.989 38.7347 308.219 40.1106 307.307 41.2918C307.232 41.4486 307.474 41.5521 307.547 41.427Z" fill="#202124"/>
<path d="M312.001 51.7036C311.917 52.1469 311.834 52.5584 311.749 53.0018C311.709 53.1598 311.987 53.2325 311.992 53.0733C312.076 52.63 312.159 52.2185 312.243 51.7752C312.284 51.6171 312.041 51.5456 312.001 51.7036Z" fill="#202124"/>
<path d="M417.708 109.285C417.407 112.044 417.055 114.8 416.754 117.559C420.855 118.286 424.908 119.01 429.009 119.736C440.474 121.778 451.839 123.815 463.15 125.94C463.265 122.943 463.099 120.522 462.943 118.83C462.628 115.491 462.024 112.864 461.883 108.169C461.869 107.531 461.846 107.029 461.866 106.666C459.406 106.94 456.946 107.214 454.388 107.437C441.644 108.692 429.388 109.245 417.708 109.285Z" fill="white"/>
<path d="M461.677 108.294C462.103 114.142 462.527 120.035 462.953 125.883C462.991 126.113 463.339 126.132 463.351 125.905C462.925 120.057 462.501 114.164 462.075 108.316C462.038 108.086 461.64 108.064 461.677 108.294Z" fill="#202124"/>
<path d="M417.244 109.577C416.8 112.192 416.553 114.863 416.557 117.503C416.545 117.73 416.943 117.752 416.955 117.525C417.003 114.843 417.248 112.217 417.642 109.599C417.652 109.418 417.303 109.399 417.244 109.577Z" fill="#202124"/>
<path d="M436.463 117.599C438.239 118.88 439.649 120.459 440.798 122.252C440.937 122.441 441.246 122.276 441.106 122.087C439.96 120.249 438.45 118.664 436.677 117.338C436.486 117.19 436.272 117.452 436.463 117.599Z" fill="#202124"/>
<path d="M400.661 112.577C400.001 112.768 399.444 112.919 398.775 113.292C398.26 113.582 397.026 114.242 396.249 115.656C395.582 116.893 395.617 118.078 395.681 118.719C395.728 119.677 395.743 120.315 396.208 120.932C397.414 122.591 400.27 122.384 400.571 122.356C400.972 122.332 402.477 122.187 403.631 121.159C404.522 120.389 404.562 119.663 405.055 118.871C405.657 117.903 406.871 116.696 409.71 115.897C410.844 116.141 411.749 116.009 411.919 115.654C412.145 115.166 411.237 114.434 411.001 114.193C410.573 113.806 409.469 113.017 407.432 112.859C406.459 112.396 405.621 112.213 405.027 112.135C403.248 111.809 401.778 112.229 400.661 112.577Z" fill="white"/>
<path d="M411.914 44.1657C411.335 44.7253 410.541 45.5462 409.782 46.642C408.699 48.1751 408.127 49.5087 407.656 50.8024C406.611 53.4751 405.974 55.0782 405.378 57.7302C403.01 68.1114 401.596 91.0591 401.596 91.0591C401.369 94.2775 401.089 99.3586 401.217 106.1C401.261 108.924 401.382 111.252 401.496 112.805C401.936 112.966 402.526 113.135 403.22 113.219C405.056 113.411 406.481 112.898 407.195 112.618C409.3 103.406 411.563 95.8401 413.422 90.1634C415.163 84.8442 416.621 81.0111 417.032 79.8961C419.534 73.4357 421.928 68.016 423.899 63.9381C424.395 62.1907 424.898 59.3971 424.076 56.2119C421.933 47.994 412.991 44.5436 411.914 44.1657Z" fill="white"/>
<path d="M410.73 44.8286C404.638 53.9581 403.641 64.8243 402.665 75.2823C401.535 87.6429 400.505 100.009 401.218 112.426C401.205 112.653 401.603 112.674 401.616 112.448C400.92 100.623 401.819 88.8417 402.866 77.0681C403.869 66.1111 404.603 54.5932 411.019 45.0265C411.181 44.8079 410.892 44.61 410.73 44.8286Z" fill="#202124"/>
<path d="M422.822 65.3805C415.995 80.6126 410.685 96.3834 406.952 112.514C406.889 112.738 407.233 112.848 407.295 112.624C411.028 96.4933 416.288 80.7198 423.165 65.4904C423.275 65.3144 422.932 65.2045 422.822 65.3805Z" fill="#202124"/>
<path d="M401.387 112.981C402.904 113.52 404.499 113.562 406.113 113.241C406.365 113.21 406.285 112.841 406.031 112.918C404.516 113.244 403.021 113.208 401.504 112.669C401.31 112.567 401.193 112.879 401.387 112.981Z" fill="#202124"/>
<path d="M400.924 112.319C399.608 112.656 398.33 113.222 397.193 113.933C396.986 114.058 397.272 114.302 397.429 114.174C398.516 113.46 399.693 112.933 400.959 112.594C401.21 112.562 401.128 112.239 400.924 112.319Z" fill="#202124"/>
<path d="M407.416 113.131C409.175 112.91 410.921 113.825 411.588 115.318C411.677 115.505 412.033 115.388 411.896 115.153C411.14 113.473 409.245 112.549 407.337 112.763C407.083 112.84 407.165 113.163 407.416 113.131Z" fill="#202124"/>
<path d="M409.275 115.645C406.491 117.267 403.595 119.109 403.265 122.368C403.253 122.595 403.601 122.614 403.663 122.39C403.985 119.268 406.829 117.467 409.506 115.977C409.613 115.846 409.429 115.563 409.275 115.645Z" fill="#202124"/>
<path d="M396.874 114.28C395.366 116.29 395.082 118.732 396.054 121.015C396.143 121.202 396.449 121.082 396.362 120.85C395.485 118.663 395.762 116.357 397.165 114.432C397.324 114.259 397.036 114.061 396.874 114.28Z" fill="#202124"/>
<path d="M398.647 115.606C397.44 117.587 397.559 119.96 398.952 121.857C399.091 122.046 399.399 121.881 399.26 121.692C397.962 119.891 397.833 117.7 398.936 115.804C399.045 115.628 398.757 115.43 398.647 115.606Z" fill="#202124"/>
<path d="M400.749 116.404C400.042 118.368 399.417 120.654 401.223 122.301C401.414 122.448 401.676 122.235 401.484 122.088C399.773 120.537 400.443 118.344 401.093 116.514C401.155 116.29 400.812 116.18 400.749 116.404Z" fill="#202124"/>
<path d="M403.252 117.179C402.279 118.536 401.992 120.113 402.405 121.683C402.442 121.913 402.845 121.844 402.758 121.611C402.34 120.132 402.622 118.646 403.54 117.377C403.699 117.204 403.411 117.006 403.252 117.179Z" fill="#202124"/>
<path d="M411.914 44.166C411.389 45.5478 410.729 47.5591 410.294 50.0379C409.643 53.688 409.782 56.608 410.027 59.3973C410.474 64.8825 410.722 67.6265 411.803 72.464C413.162 78.5911 415.015 89.3414 417.604 109.37C418.577 109.833 419.992 110.411 421.756 111.009C429.884 113.823 437.066 113.9 440.566 113.775C450.618 113.373 458.132 110.146 461.933 108.171C461.772 97.5143 461.882 86.4626 462.26 75.0617C462.531 67.4317 462.943 59.9461 463.443 52.6928C462.072 51.2977 460.078 49.4586 457.434 47.6293C456.183 46.7867 450.741 43.2106 442.453 41.4799C433.672 39.631 426.52 40.8297 421.783 41.6609C417.604 42.3407 414.255 43.3394 411.914 44.166Z" fill="white"/>
<path d="M409.669 57.7392C411.864 74.97 414.459 92.1774 417.507 109.319C417.544 109.548 417.898 109.477 417.86 109.247C414.812 92.1059 412.165 74.9411 410.023 57.6677C409.985 57.4381 409.632 57.5097 409.669 57.7392Z" fill="#202124"/>
<path d="M417.547 109.503C431.626 115.739 448.414 115.344 462.016 108.494C462.222 108.369 462.038 108.086 461.832 108.211C448.332 115.021 431.646 115.376 417.664 109.191C417.421 109.086 417.301 109.444 417.547 109.503Z" fill="#202124"/>
<path d="M412.006 44.3076C428.063 39.0945 447.396 38.7034 460.53 50.3026C460.722 50.4497 460.983 50.2366 460.791 50.0895C447.565 38.3486 428.033 38.7288 411.825 43.9791C411.618 44.1042 411.802 44.3874 412.006 44.3076Z" fill="#202124"/>
<path d="M462.967 54.9877C461.893 72.6755 461.465 90.3989 461.685 108.158C461.672 108.385 462.07 108.407 462.083 108.18C461.863 90.4208 462.291 72.6974 463.365 55.0096C463.377 54.7827 462.979 54.7608 462.967 54.9877Z" fill="#202124"/>
<path d="M429.359 116.115C428.718 115.988 427.825 115.894 426.777 115.882C425.73 115.869 423.782 115.899 421.74 116.742C420.362 117.303 417.993 118.629 418.244 119.507C418.286 119.646 418.55 120.297 421.286 120.448C419.674 122.544 418.066 123.638 416.835 124.253C416.014 124.663 415.2 124.936 415.173 125.435C415.128 126.252 417.036 126.949 418.354 127.476C419.528 127.905 420.749 128.382 422.496 128.387C423.195 128.38 424.346 128.307 425.665 127.925C425.968 127.85 427.242 127.374 428.698 126.317C429.894 125.427 429.815 125.059 431.84 122.713C433.547 120.714 434.008 120.512 434.053 119.695C434.12 118.47 433.091 117.231 431.927 116.62C430.862 116.016 429.81 116.094 429.359 116.115Z" fill="white"/>
<path d="M461.155 50.7465C461.635 51.0915 461.953 51.6551 462.64 52.785C464.055 55.1837 464.539 57.2581 464.698 57.995C465.978 63.7536 466.616 66.6556 467.078 70.0484C468.019 77.4266 467.174 75.5598 467.97 83.7491C468.136 85.2599 468.402 87.6863 467.399 90.4979C466.806 92.1944 465.992 93.3782 465.45 94.1674C463.442 97.1056 461.101 98.8424 460.317 99.4818C455.156 103.475 460.946 99.835 445.39 112.266C442.362 114.693 438.449 117.799 433.759 121.408C433.642 120.81 433.431 120.116 432.976 119.317C431.879 117.482 430.235 116.527 429.409 116.118C430.693 114.55 431.98 112.937 433.266 111.325C439.975 102.775 445.584 94.2562 450.33 86.0082C450.181 84.1798 449.983 82.3486 449.784 80.5175C449.03 72.467 448.224 64.4592 447.365 56.494C448.094 55.9426 457.984 48.5241 461.155 50.7465Z" fill="white"/>
<path d="M447.017 56.4751C448.317 66.3758 449.317 76.3055 450.016 86.2641C450.054 86.4937 450.402 86.5129 450.414 86.2861C449.718 76.2821 448.718 66.3524 447.42 56.4062C447.382 56.1767 447.029 56.2482 447.017 56.4751Z" fill="#202124"/>
<path d="M450.348 85.6905C443.788 96.0683 436.743 106.192 429.216 116.016C429.056 116.189 429.395 116.39 429.504 116.214C437.031 106.39 444.076 96.2663 450.636 85.8884C450.798 85.6698 450.46 85.4692 450.348 85.6905Z" fill="#202124"/>
<path d="M429.489 116.486C431.593 117.239 432.993 119 433.129 121.055C433.166 121.285 433.515 121.304 433.527 121.077C433.398 118.886 431.857 116.98 429.606 116.174C429.412 116.072 429.295 116.384 429.489 116.486Z" fill="#202124"/>
<path d="M461.267 51.435C463.861 54.1717 464.551 57.9412 465.312 61.3504C466.075 64.7143 466.638 68.0673 467.05 71.4573C467.497 75.1224 467.745 78.7764 467.791 82.4649C467.84 86.108 467.981 89.8927 465.906 93.1457C463.997 96.0894 461.121 98.4792 458.493 100.883C455.866 103.286 453.193 105.596 450.424 107.856C444.933 112.422 439.302 116.799 433.619 121.218C433.413 121.344 433.696 121.632 433.856 121.459C440.215 116.531 446.575 111.602 452.701 106.388C455.739 103.78 458.729 101.123 461.623 98.4159C463.835 96.308 466.154 94.0695 467.309 91.2208C468.472 88.236 468.216 84.718 468.14 81.574C468.044 77.8828 467.798 74.1833 467.304 70.4702C466.808 66.8024 466.16 63.1718 465.262 59.5275C464.529 56.5293 463.799 53.4857 461.533 51.1312C461.389 51.0322 461.075 51.288 461.267 51.435Z" fill="#202124"/>
<path d="M418.659 119.211C420.996 116.655 424.601 115.534 428.2 116.324C428.446 116.383 428.563 116.071 428.317 116.012C424.569 115.214 420.812 116.372 418.371 119.014C418.212 119.187 418.503 119.339 418.659 119.211Z" fill="#202124"/>
<path d="M422.488 118.557C420.798 121.149 418.253 122.966 415.708 124.782C415.501 124.907 415.787 125.15 415.944 125.023C418.539 123.209 421.089 121.302 422.779 118.71C422.936 118.582 422.597 118.381 422.488 118.557Z" fill="#202124"/>
<path d="M415.956 125.706C418.265 125.469 420.402 124.723 422.365 123.511C422.571 123.386 422.285 123.143 422.129 123.271C420.268 124.442 418.183 125.146 415.924 125.386C415.625 125.37 415.707 125.693 415.956 125.706Z" fill="#202124"/>
<path d="M417.727 126.168C418.852 126.594 419.919 126.243 421.036 125.895C422.255 125.507 423.479 125.029 424.516 124.312C424.723 124.187 424.437 123.944 424.28 124.072C422.777 125.081 419.752 126.552 417.894 125.858C417.648 125.799 417.531 126.112 417.727 126.168Z" fill="#202124"/>
<path d="M419.762 127.281C421.543 127.561 423.304 127.294 424.894 126.517C425.101 126.392 424.917 126.109 424.71 126.234C423.17 127.013 421.511 127.241 419.78 126.963C419.533 126.904 419.516 127.222 419.762 127.281Z" fill="#202124"/>
<path d="M421.493 128.468C427.453 128.979 430.212 125.081 433.323 121.157C433.482 120.983 433.144 120.783 433.034 120.959C430.033 124.707 427.323 128.608 421.513 128.105C421.264 128.092 421.244 128.455 421.493 128.468Z" fill="#202124"/>
<path d="M423.028 38.999C422.898 39.5379 422.988 40.6349 422.978 40.8164C423.005 41.2275 423.052 42.1857 423.353 43.0668C424.079 45.291 426.056 46.5376 426.15 46.6338C428.177 47.8831 430.282 47.726 430.834 47.6654C431.372 47.877 431.705 48.1684 431.643 48.3925C431.58 48.6166 431.018 48.8587 430.277 48.7268C430.222 48.8148 429.879 49.615 430.336 50.3683C430.746 51.0735 431.632 51.3043 432.284 51.2492C432.836 51.1886 433.254 50.8476 434.092 50.1202C434.719 49.6086 435.244 49.137 435.784 48.3932C436.272 47.692 436.561 46.9798 436.695 46.3501C436.327 45.7838 435.959 45.2175 435.589 44.6965C435.766 44.2057 436.005 43.4908 436.152 42.6343C436.363 41.5083 436.563 40.6092 436.406 39.827C436.016 37.8488 433.636 36.671 433.148 36.4621C429.208 34.6069 423.546 36.8433 423.028 38.999Z" fill="white"/>
<path d="M436.425 42.1945C436.448 41.7862 436.465 40.5586 435.58 39.4177C435.438 39.2733 434.973 38.6562 434.051 38.1958C432.74 37.532 431.439 37.5968 430.688 37.6465C429.486 37.7168 429.222 37.9753 426.991 38.6259C424.759 39.2766 423.595 39.5765 422.605 39.431C422.309 39.3691 420.329 39.078 419.12 37.4643C417.959 35.8987 417.982 33.6702 419.316 32.1055C420.329 30.9326 421.906 30.3824 423.254 30.3657C424.451 30.3861 424.829 30.771 428.318 32.6469C431.325 34.2232 432.78 34.9859 433.365 35.2457C434.733 35.7761 435.909 36.1594 436.897 37.2604C437.227 37.5972 437.695 38.169 437.851 38.9512C438.207 40.6545 436.634 42.024 436.425 42.1945Z" fill="#202124"/>
<path d="M423.015 39.2255C422.278 42.6433 424.016 46.4249 427.896 47.5488C431.53 48.6136 435.566 46.9247 436.211 43.3653C436.273 43.1412 435.875 43.1193 435.813 43.3434C435.11 47.0361 430.441 48.4626 426.988 46.8162C423.924 45.3733 422.699 42.2569 423.311 39.2873C423.421 39.1113 423.078 39.0014 423.015 39.2255Z" fill="#202124"/>
<path d="M430.727 47.7959C431.06 48.0873 431.443 48.3815 431.774 48.7182C431.965 48.8653 432.227 48.6521 432.035 48.5051C431.702 48.2137 431.319 47.9196 430.988 47.5828C430.799 47.3904 430.535 47.6489 430.727 47.7959Z" fill="#202124"/>
<path d="M430.13 48.6731C429.291 50.3106 431.067 51.5916 432.793 51.0496C434.925 50.3935 436.389 48.2899 436.941 46.4091C437.004 46.185 436.66 46.0751 436.598 46.2992C436.23 47.553 435.57 48.6543 434.572 49.555C434.152 49.9413 433.632 50.3222 433.07 50.5643C432.816 50.6413 432.612 50.7211 432.358 50.7981C431.649 50.9866 431.109 50.8203 430.791 50.2568C430.271 49.7276 430.142 49.3564 430.475 48.7377C430.582 48.6071 430.239 48.4972 430.13 48.6731Z" fill="#202124"/>
<path d="M422.294 38.7312C418.383 38.1518 418.193 33.4542 420.599 31.448C422.95 29.5298 425.86 31.0553 427.925 32.5342C429.221 33.4702 430.474 34.2673 431.939 34.8486C434.479 35.8531 438.608 36.9906 437.522 40.3892C437.46 40.6133 437.803 40.7232 437.866 40.4991C438.65 38.0396 436.551 36.2857 434.257 35.3403C431.867 34.344 429.872 33.4151 427.756 31.9788C426.41 31.0401 424.913 30.1385 423.164 30.1787C417.873 30.2057 416.881 38.251 422.274 39.0941C422.523 39.1079 422.54 38.7903 422.294 38.7312Z" fill="#202124"/>
<path d="M422.085 38.9015C423.951 39.4594 425.565 39.1388 427.391 38.6023C428.558 38.257 429.678 37.8636 430.929 37.7961C433.782 37.6347 436.227 39.4531 436.177 42.1806C436.167 42.3621 436.413 42.4211 436.52 42.2905C437.008 41.5893 437.498 40.8427 437.986 40.1415C438.095 39.9655 437.807 39.7676 437.697 39.9436C437.533 40.2076 436.814 41.4876 436.565 41.4739C436.764 41.4849 436.145 40.0401 436.192 40.0882C435.7 39.06 434.794 38.282 433.67 37.8561C429.765 36.2758 426.175 39.8549 422.2 38.6348C422.006 38.5331 421.889 38.8452 422.085 38.9015Z" fill="#202124"/>
<path d="M427.302 39.3253C426.687 40.5201 425.368 43.6328 427.636 44.1218C427.882 44.1809 427.999 43.8688 427.753 43.8097C425.88 43.388 427.085 40.542 427.64 39.526C427.7 39.3473 427.411 39.1494 427.302 39.3253Z" fill="#202124"/>
<path d="M430.055 40.9786C429.958 40.9278 430.115 40.7999 430.154 40.9841C430.152 41.0295 430.149 41.0749 430.147 41.1202C430.144 41.1656 430.142 41.211 430.095 41.1629C429.893 41.1973 430.06 40.8879 430.01 40.8852C430.057 40.9333 430.105 40.9814 430.055 40.9786C430.05 41.0694 430.097 41.1175 430.147 41.1202C430.144 41.1656 430.142 41.211 430.139 41.2563L430.142 41.211C430.204 40.9869 429.811 40.8742 429.799 41.101C429.736 41.3251 429.975 41.5203 430.229 41.4433C430.485 41.3209 430.453 41.0006 430.366 40.7682C430.279 40.5359 429.938 40.3806 429.724 40.6419C429.565 40.8151 429.592 41.2262 429.781 41.4186C429.97 41.611 430.269 41.6275 430.428 41.4542C430.587 41.281 430.56 40.8699 430.421 40.6803C430.232 40.4878 429.931 40.5167 429.774 40.6446C429.565 40.8151 429.647 41.1382 429.888 41.288C430.08 41.4351 430.246 41.1257 430.055 40.9786Z" fill="#202124"/>
<path d="M429.702 39.2302C430.107 39.116 430.503 39.1833 430.841 39.3839C431.033 39.531 431.249 39.2244 431.055 39.1227C430.622 38.8258 430.078 38.7503 429.568 38.9497C429.314 39.0268 429.498 39.3099 429.702 39.2302Z" fill="#202124"/>
<path d="M427.076 45.2288C428.198 45.7002 429.417 45.3123 430.016 44.3897C430.126 44.2137 429.837 44.0158 429.728 44.1918C429.233 45.0291 428.218 45.3372 427.242 44.9195C426.999 44.815 426.882 45.1271 427.076 45.2288Z" fill="#202124"/>
<path d="M69.376 130.2C71.072 130.2 72.488 130.752 73.624 131.856C74.76 132.944 75.328 134.32 75.328 135.984C75.328 137.632 74.76 139.008 73.624 140.112C72.488 141.2 71.072 141.744 69.376 141.744H66.568V147H62.92V130.2H69.376ZM69.232 138.384C69.952 138.384 70.528 138.16 70.96 137.712C71.408 137.264 71.632 136.688 71.632 135.984C71.632 135.28 71.408 134.704 70.96 134.256C70.528 133.792 69.952 133.56 69.232 133.56H66.568V138.384H69.232ZM88.0531 134.016H90.6691V146.976H87.9091L87.6211 145.824C86.4371 146.848 85.0371 147.36 83.4211 147.36C81.4691 147.36 79.8451 146.712 78.5491 145.416C77.2691 144.104 76.6291 142.464 76.6291 140.496C76.6291 138.544 77.2691 136.92 78.5491 135.624C79.8451 134.328 81.4691 133.68 83.4211 133.68C85.0691 133.68 86.4851 134.208 87.6691 135.264L88.0531 134.016ZM81.1651 143.04C81.8371 143.712 82.6771 144.048 83.6851 144.048C84.7091 144.048 85.5571 143.712 86.2291 143.04C86.9011 142.368 87.2371 141.52 87.2371 140.496C87.2371 139.472 86.9011 138.624 86.2291 137.952C85.5571 137.28 84.7171 136.944 83.7091 136.944C83.0371 136.944 82.4291 137.104 81.8851 137.424C81.3571 137.728 80.9411 138.152 80.6371 138.696C80.3331 139.224 80.1811 139.824 80.1811 140.496C80.1811 141.52 80.5091 142.368 81.1651 143.04ZM100.975 134.568C102.879 134.568 104.407 135.144 105.559 136.296C106.711 137.448 107.287 138.96 107.287 140.832C107.287 142.8 106.663 144.384 105.415 145.584C104.167 146.768 102.511 147.36 100.447 147.36C98.2234 147.36 96.5034 146.68 95.2874 145.32C94.0714 143.944 93.4634 142.008 93.4634 139.512C93.4634 136.648 94.0794 134.392 95.3114 132.744C96.5594 131.08 98.4954 129.92 101.119 129.264L105.439 128.208V131.64L101.143 132.696C99.0154 133.224 97.7594 134.24 97.3754 135.744C98.4474 134.96 99.6474 134.568 100.975 134.568ZM98.0714 143.184C98.6954 143.808 99.4794 144.12 100.423 144.12C101.383 144.12 102.175 143.808 102.799 143.184C103.423 142.56 103.735 141.768 103.735 140.808C103.735 139.848 103.423 139.056 102.799 138.432C102.175 137.792 101.391 137.472 100.447 137.472C99.8074 137.472 99.2314 137.616 98.7194 137.904C98.2234 138.192 97.8314 138.592 97.5434 139.104C97.2714 139.6 97.1354 140.168 97.1354 140.808C97.1354 141.768 97.4474 142.56 98.0714 143.184ZM116.004 147.36C114.676 147.36 113.476 147.064 112.404 146.472C111.332 145.88 110.492 145.064 109.884 144.024C109.292 142.968 108.996 141.8 108.996 140.52C108.996 138.552 109.66 136.92 110.988 135.624C112.316 134.328 113.988 133.68 116.004 133.68C118.004 133.68 119.668 134.328 120.996 135.624C122.324 136.92 122.988 138.552 122.988 140.52C122.988 142.472 122.316 144.104 120.972 145.416C119.644 146.712 117.988 147.36 116.004 147.36ZM116.004 144.072C117.012 144.072 117.836 143.744 118.476 143.088C119.116 142.416 119.436 141.56 119.436 140.52C119.436 139.48 119.116 138.632 118.476 137.976C117.836 137.304 117.004 136.968 115.98 136.968C114.972 136.968 114.148 137.304 113.508 137.976C112.868 138.632 112.548 139.48 112.548 140.52C112.548 141.032 112.628 141.512 112.788 141.96C112.964 142.408 113.204 142.784 113.508 143.088C113.812 143.392 114.172 143.632 114.588 143.808C115.02 143.984 115.492 144.072 116.004 144.072ZM135.867 134.04V137.184H131.643V147H128.211V137.184H123.987V134.04H135.867ZM148.287 134.016H150.903V146.976H148.143L147.855 145.824C146.671 146.848 145.271 147.36 143.655 147.36C141.703 147.36 140.079 146.712 138.783 145.416C137.503 144.104 136.863 142.464 136.863 140.496C136.863 138.544 137.503 136.92 138.783 135.624C140.079 134.328 141.703 133.68 143.655 133.68C145.303 133.68 146.719 134.208 147.903 135.264L148.287 134.016ZM141.399 143.04C142.071 143.712 142.911 144.048 143.919 144.048C144.943 144.048 145.791 143.712 146.463 143.04C147.135 142.368 147.471 141.52 147.471 140.496C147.471 139.472 147.135 138.624 146.463 137.952C145.791 137.28 144.951 136.944 143.943 136.944C143.271 136.944 142.663 137.104 142.119 137.424C141.591 137.728 141.175 138.152 140.871 138.696C140.567 139.224 140.415 139.824 140.415 140.496C140.415 141.52 140.743 142.368 141.399 143.04ZM166.04 147.36C164.76 147.36 163.592 147.064 162.536 146.472C161.496 145.864 160.672 145.032 160.064 143.976C159.472 142.92 159.176 141.752 159.176 140.472C159.176 138.536 159.832 136.92 161.144 135.624C162.456 134.328 164.096 133.68 166.064 133.68C167.744 133.68 169.184 134.168 170.384 135.144C171.584 136.104 172.344 137.384 172.664 138.984H169.184C168.896 138.36 168.472 137.872 167.912 137.52C167.368 137.152 166.744 136.968 166.04 136.968C165.096 136.968 164.304 137.304 163.664 137.976C163.04 138.648 162.728 139.488 162.728 140.496C162.728 141.504 163.048 142.352 163.688 143.04C164.328 143.728 165.112 144.072 166.04 144.072C166.744 144.072 167.368 143.888 167.912 143.52C168.456 143.136 168.88 142.592 169.184 141.888H172.712C172.392 143.536 171.624 144.864 170.408 145.872C169.192 146.864 167.736 147.36 166.04 147.36Z" fill="#1D1D1E"/>
<path d="M192.662 147H188.438L184.262 140.808V147H180.758V134.04H184.262V139.8L188.198 134.04H192.182L187.79 140.232L192.662 147ZM199.817 147.36C198.489 147.36 197.289 147.064 196.217 146.472C195.145 145.88 194.305 145.064 193.697 144.024C193.105 142.968 192.809 141.8 192.809 140.52C192.809 138.552 193.473 136.92 194.801 135.624C196.129 134.328 197.801 133.68 199.817 133.68C201.817 133.68 203.481 134.328 204.809 135.624C206.137 136.92 206.801 138.552 206.801 140.52C206.801 142.472 206.129 144.104 204.785 145.416C203.457 146.712 201.801 147.36 199.817 147.36ZM199.817 144.072C200.825 144.072 201.649 143.744 202.289 143.088C202.929 142.416 203.249 141.56 203.249 140.52C203.249 139.48 202.929 138.632 202.289 137.976C201.649 137.304 200.817 136.968 199.793 136.968C198.785 136.968 197.961 137.304 197.321 137.976C196.681 138.632 196.361 139.48 196.361 140.52C196.361 141.032 196.441 141.512 196.601 141.96C196.777 142.408 197.017 142.784 197.321 143.088C197.625 143.392 197.985 143.632 198.401 143.808C198.833 143.984 199.305 144.072 199.817 144.072ZM217.536 134.04H221.04V147H217.536V142.032H212.832V147H209.328V134.04H212.832V138.84H217.536V134.04ZM235.031 134.04V137.184H230.807V147H227.375V137.184H223.151V134.04H235.031ZM244.229 133.68C246.181 133.68 247.797 134.328 249.077 135.624C250.373 136.92 251.021 138.552 251.021 140.52C251.021 142.488 250.373 144.128 249.077 145.44C247.781 146.736 246.165 147.384 244.229 147.384C242.901 147.384 241.709 147.024 240.653 146.304V151.68H237.149V134.04H239.477L240.077 135.216C241.229 134.192 242.613 133.68 244.229 133.68ZM241.397 143.064C242.069 143.736 242.909 144.072 243.917 144.072C244.941 144.072 245.789 143.736 246.461 143.064C247.133 142.392 247.469 141.544 247.469 140.52C247.469 139.848 247.317 139.24 247.013 138.696C246.709 138.152 246.285 137.728 245.741 137.424C245.213 137.12 244.613 136.968 243.941 136.968C243.269 136.968 242.661 137.12 242.117 137.424C241.573 137.728 241.149 138.152 240.845 138.696C240.557 139.24 240.413 139.848 240.413 140.52C240.413 141.544 240.741 142.392 241.397 143.064ZM264.092 134.016H266.708V146.976H263.948L263.66 145.824C262.476 146.848 261.076 147.36 259.46 147.36C257.508 147.36 255.884 146.712 254.588 145.416C253.308 144.104 252.668 142.464 252.668 140.496C252.668 138.544 253.308 136.92 254.588 135.624C255.884 134.328 257.508 133.68 259.46 133.68C261.108 133.68 262.524 134.208 263.708 135.264L264.092 134.016ZM257.204 143.04C257.876 143.712 258.716 144.048 259.724 144.048C260.748 144.048 261.596 143.712 262.268 143.04C262.94 142.368 263.276 141.52 263.276 140.496C263.276 139.472 262.94 138.624 262.268 137.952C261.596 137.28 260.756 136.944 259.748 136.944C259.076 136.944 258.468 137.104 257.924 137.424C257.396 137.728 256.98 138.152 256.676 138.696C256.372 139.224 256.22 139.824 256.22 140.496C256.22 141.52 256.548 142.368 257.204 143.04ZM281.982 147H277.758L273.582 140.808V147H270.078V134.04H273.582V139.8L277.518 134.04H281.502L277.11 140.232L281.982 147ZM294.14 134.04V137.184H289.916V147H286.484V137.184H282.26V134.04H294.14ZM306.561 134.016H309.177V146.976H306.417L306.129 145.824C304.945 146.848 303.545 147.36 301.929 147.36C299.977 147.36 298.353 146.712 297.057 145.416C295.777 144.104 295.137 142.464 295.137 140.496C295.137 138.544 295.777 136.92 297.057 135.624C298.353 134.328 299.977 133.68 301.929 133.68C303.577 133.68 304.993 134.208 306.177 135.264L306.561 134.016ZM299.673 143.04C300.345 143.712 301.185 144.048 302.193 144.048C303.217 144.048 304.065 143.712 304.737 143.04C305.409 142.368 305.745 141.52 305.745 140.496C305.745 139.472 305.409 138.624 304.737 137.952C304.065 137.28 303.225 136.944 302.217 136.944C301.545 136.944 300.937 137.104 300.393 137.424C299.865 137.728 299.449 138.152 299.145 138.696C298.841 139.224 298.689 139.824 298.689 140.496C298.689 141.52 299.017 142.368 299.673 143.04ZM329.467 147H326.083L324.883 139.2L320.875 147.024H320.203L316.195 139.2L314.995 147H311.611L313.771 134.04H316.771L320.539 141.384L324.355 134.04H327.331L329.467 147ZM341.339 134.04H343.307V147H339.923V140.136L333.899 147H331.907V134.04H335.291V140.832L341.339 134.04Z" fill="#8569D0"/>
<ellipse cx="446.5" cy="138.454" rx="19.5" ry="19.4537" fill="#8569D0"/>
<path fill-rule="evenodd" clip-rule="evenodd" d="M443.984 144.225C443.67 143.912 443.67 143.403 443.984 143.09L448.242 138.843L443.984 134.595C443.67 134.282 443.67 133.774 443.984 133.46C444.298 133.147 444.808 133.147 445.122 133.46L449.948 138.275C450.262 138.589 450.262 139.097 449.948 139.41L445.122 144.225C444.808 144.538 444.298 144.538 443.984 144.225Z" fill="white"/>
</g>
</g>
<defs>
<filter id="filter0_d_64_5976" x="0" y="0" width="519" height="216" filterUnits="userSpaceOnUse" color-interpolation-filters="sRGB">
<feFlood flood-opacity="0" result="BackgroundImageFix"/>
<feColorMatrix in="SourceAlpha" type="matrix" values="0 0 0 0 0 0 0 0 0 0 0 0 0 0 0 0 0 0 127 0" result="hardAlpha"/>
<feOffset dy="5"/>
<feGaussianBlur stdDeviation="15"/>
<feComposite in2="hardAlpha" operator="out"/>
<feColorMatrix type="matrix" values="0 0 0 0 0 0 0 0 0 0 0 0 0 0 0 0 0 0 0.03 0"/>
<feBlend mode="normal" in2="BackgroundImageFix" result="effect1_dropShadow_64_5976"/>
<feBlend mode="normal" in="SourceGraphic" in2="effect1_dropShadow_64_5976" result="shape"/>
</filter>
<linearGradient id="paint0_linear_64_5976" x1="423.38" y1="-555.778" x2="-153.563" y2="432.152" gradientUnits="userSpaceOnUse">
<stop offset="0.135049" stop-color="#E8DAFF"/>
<stop offset="1" stop-color="#EEE3FF" stop-opacity="0"/>
</linearGradient>
<clipPath id="clip0_64_5976">
<rect x="30" y="25" width="459" height="156" rx="20" fill="white"/>
</clipPath>
</defs>
</svg>
