<svg width="38" height="38" viewBox="0 0 38 38" fill="#8569D0" xmlns="http://www.w3.org/2000/svg">
<path d="M8.3125 9.6875C7.76022 9.6875 7.3125 10.1352 7.3125 10.6875C7.3125 11.2398 7.76022 11.6875 8.3125 11.6875V9.6875ZM29.6875 11.6875C30.2398 11.6875 30.6875 11.2398 30.6875 10.6875C30.6875 10.1352 30.2398 9.6875 29.6875 9.6875V11.6875ZM8.3125 18C7.76022 18 7.3125 18.4477 7.3125 19C7.3125 19.5523 7.76022 20 8.3125 20V18ZM29.6875 20C30.2398 20 30.6875 19.5523 30.6875 19C30.6875 18.4477 30.2398 18 29.6875 18V20ZM8.3125 26.3125C7.76022 26.3125 7.3125 26.7602 7.3125 27.3125C7.3125 27.8648 7.76022 28.3125 8.3125 28.3125V26.3125ZM29.6875 28.3125C30.2398 28.3125 30.6875 27.8648 30.6875 27.3125C30.6875 26.7602 30.2398 26.3125 29.6875 26.3125V28.3125ZM8.3125 11.6875H29.6875V9.6875H8.3125V11.6875ZM8.3125 20H29.6875V18H8.3125V20ZM8.3125 28.3125H29.6875V26.3125H8.3125V28.3125Z" />
</svg>
