<svg width="20" height="21" viewBox="0 0 20 21" fill="#FF5151" xmlns="http://www.w3.org/2000/svg">
<path fill-rule="evenodd" clip-rule="evenodd" d="M5.16272 5.66272C5.37968 5.44576 5.73143 5.44576 5.94839 5.66272L10 9.71433L14.0516 5.66272C14.2686 5.44576 14.6203 5.44576 14.8373 5.66272C15.0542 5.87968 15.0542 6.23143 14.8373 6.44839L10.7857 10.5L14.8373 14.5516C15.0542 14.7686 15.0542 15.1203 14.8373 15.3373C14.6203 15.5542 14.2686 15.5542 14.0516 15.3373L10 11.2857L5.94839 15.3373C5.73143 15.5542 5.37968 15.5542 5.16272 15.3373C4.94576 15.1203 4.94576 14.7686 5.16272 14.5516L9.21433 10.5L5.16272 6.44839C4.94576 6.23143 4.94576 5.87968 5.16272 5.66272Z"/>
</svg>
