<svg width="24" height="24" viewBox="0 0 24 24" fill="none" xmlns="http://www.w3.org/2000/svg">
<path d="M9 12H15" stroke="#8569D0" stroke-width="2" stroke-linecap="round" stroke-linejoin="round"/>
<path d="M15 6H16C17.5913 6 19.1174 6.63214 20.2426 7.75736C21.3679 8.88258 22 10.4087 22 12C22 13.5913 21.3679 15.1174 20.2426 16.2426C19.1174 17.3679 17.5913 18 16 18H15" stroke="#8569D0" stroke-width="2" stroke-linecap="round" stroke-linejoin="round"/>
<path d="M9 18H8C6.4087 18 4.88258 17.3679 3.75736 16.2426C2.63214 15.1174 2 13.5913 2 12C2 10.4087 2.63214 8.88258 3.75736 7.75736C4.88258 6.63214 6.4087 6 8 6H9" stroke="#8569D0" stroke-width="2" stroke-linecap="round" stroke-linejoin="round"/>
</svg>
