<svg width="32" height="32" viewBox="0 0 32 32" fill="none" xmlns="http://www.w3.org/2000/svg">
<path d="M6 10H26M14 15V20M18 15V20M8 10H24L22.42 24.22C22.3658 24.7094 22.1331 25.1616 21.7663 25.49C21.3994 25.8184 20.9244 26 20.432 26H11.568C11.0756 26 10.6006 25.8184 10.2337 25.49C9.86693 25.1616 9.63416 24.7094 9.58 24.22L8 10ZM11.345 7.147C11.5068 6.80397 11.7627 6.514 12.083 6.31091C12.4033 6.10782 12.7747 6 13.154 6H18.846C19.2254 5.99981 19.5971 6.10755 19.9176 6.31064C20.2381 6.51374 20.4942 6.80381 20.656 7.147L22 10H10L11.345 7.147V7.147Z" stroke="#FF5151" stroke-width="2" stroke-linecap="round" stroke-linejoin="round"/>
</svg>
