<svg width="18" height="18" viewBox="0 0 18 18" fill="none" xmlns="http://www.w3.org/2000/svg">
<path fill-rule="evenodd" clip-rule="evenodd" d="M5.42024 5.42027C5.63991 5.2006 5.99607 5.2006 6.21574 5.42027L8.99997 8.2045L11.7842 5.42027C12.0039 5.2006 12.36 5.2006 12.5797 5.42027C12.7994 5.63994 12.7994 5.9961 12.5797 6.21577L9.79547 9L12.5797 11.7842C12.7994 12.0039 12.7994 12.3601 12.5797 12.5797C12.36 12.7994 12.0039 12.7994 11.7842 12.5797L8.99997 9.7955L6.21574 12.5797C5.99607 12.7994 5.63991 12.7994 5.42024 12.5797C5.20057 12.3601 5.20057 12.0039 5.42024 11.7842L8.20448 9L5.42024 6.21577C5.20057 5.9961 5.20057 5.63994 5.42024 5.42027Z" fill="#8569D0"/>
</svg>
