<svg width="32" height="32" viewBox="0 0 32 32" fill="none" xmlns="http://www.w3.org/2000/svg">
<path fill-rule="evenodd" clip-rule="evenodd" d="M16 6C16.3807 6 16.7283 6.21612 16.8968 6.55748L19.4448 11.721L25.1438 12.5491C25.5205 12.6038 25.8334 12.8676 25.9511 13.2297C26.0687 13.5917 25.9706 13.9891 25.698 14.2548L21.5745 18.274L22.548 23.9493C22.6123 24.3245 22.4581 24.7036 22.1502 24.9274C21.8422 25.1511 21.434 25.1806 21.097 25.0035L16 22.324L10.903 25.0035C10.566 25.1806 10.1578 25.1511 9.84983 24.9274C9.54189 24.7036 9.38767 24.3245 9.45203 23.9493L10.4255 18.274L6.302 14.2548C6.02942 13.9891 5.93132 13.5917 6.04894 13.2297C6.16657 12.8676 6.47952 12.6038 6.85621 12.5491L12.5552 11.721L15.1032 6.55748C15.2717 6.21612 15.6193 6 16 6Z" fill="#D2D933"/>
</svg>
