<svg width="519" height="216" viewBox="0 0 519 216" fill="none" xmlns="http://www.w3.org/2000/svg">
<g filter="url(#filter0_d_64_5962)">
<g clip-path="url(#clip0_64_5962)">
<rect x="30" y="25" width="459" height="156" rx="20" fill="white"/>
<ellipse cx="446.5" cy="138.454" rx="19.5" ry="19.4537" fill="#8569D0"/>
<path fill-rule="evenodd" clip-rule="evenodd" d="M443.984 144.225C443.67 143.912 443.67 143.403 443.984 143.09L448.242 138.843L443.984 134.595C443.67 134.282 443.67 133.774 443.984 133.46C444.298 133.147 444.808 133.147 445.122 133.46L449.948 138.275C450.262 138.589 450.262 139.097 449.948 139.41L445.122 144.225C444.808 144.538 444.298 144.538 443.984 144.225Z" fill="white"/>
<path d="M-203.29 -11.8294C-3.37352 -31.4505 -63.4701 26.1097 167.172 162.557C380.232 288.603 467.556 59.5292 444.117 -129.245C435.252 -238.081 571.072 -202.46 560.006 -337.309C548.94 -472.158 355.981 -429.87 335.208 -637.248M-182.929 -35.1186C0.330951 -52.5443 -51.9803 0.255775 160.714 126.31C356.219 242.105 439.669 31.6068 417.669 -142.889C408.976 -244.471 534.562 -207.787 524.362 -332.076C513.931 -459.139 336.127 -425.499 315.983 -616.32M-162.567 -58.408C4.0353 -73.6384 -40.4906 -25.5985 154.256 90.0628C332.205 195.607 411.781 3.68404 391.22 -156.534C382.7 -250.862 498.052 -213.114 488.717 -326.843C478.922 -446.12 316.272 -421.129 296.759 -595.393M-142.206 -81.6978C7.73855 -94.7329 -29.002 -51.4532 147.797 53.8154C308.19 149.108 383.892 -24.2392 364.77 -170.179C356.422 -257.254 461.541 -218.442 453.071 -321.611C443.911 -433.101 296.417 -416.758 277.533 -574.466M-121.847 -104.988C11.4408 -115.828 -17.5144 -77.3083 141.338 17.5675C284.175 102.61 356.001 -52.1628 338.319 -183.825C330.144 -263.646 425.029 -223.77 417.424 -316.379C408.9 -420.083 276.56 -412.389 258.307 -553.54M140.89 -282.723C148.498 -251.006 103.791 -226.261 83.8456 -239.546C50.6256 -261.672 25.0832 -266.871 8.39688 -271.398C-36.0374 -283.455 -42.2987 -327.159 -23.0227 -358.969C-3.74664 -390.778 14.8899 -370.921 27.391 -416.993C42.5909 -473.012 100.861 -444.718 117.707 -413.986C131.55 -388.731 144.613 -402.877 148.689 -353.678C150.238 -334.99 133.923 -311.767 140.89 -282.723ZM311.099 -197.68C327.342 -80.2957 259.39 55.9013 134.109 -18.8897C-6.79574 -103.373 14.3741 -137.132 -102.256 -128.488C-231.499 -123.266 -287.013 -319.45 -186.556 -405.206C-86.0992 -490.962 -54.8498 -449.328 -22.8429 -559.305C10.3906 -673.802 219.323 -659.907 238.311 -532.823C255.935 -408.228 373.119 -407.274 381.008 -311.357C387.748 -229.308 303.097 -270.247 311.099 -197.68ZM282.97 -211.782C297.774 -108.676 233.696 8.94598 125.971 -55.594C3.01368 -129.684 16.3981 -158.684 -83.5748 -152.234C-198.683 -149.892 -245.988 -320.663 -159.061 -397.428C-72.1346 -474.193 -42.9873 -436.189 -14.2315 -535.515C15.9964 -640.265 198.775 -623.378 217.406 -512.353C234.4 -404.315 336.43 -394.712 343.683 -306.581C349.558 -235.093 275.14 -277.095 282.97 -211.782ZM254.791 -225.899C268.155 -137.07 207.951 -38.0237 117.782 -92.3127C12.7726 -156.01 18.3716 -180.249 -64.944 -175.996C-165.917 -176.533 -205.014 -321.891 -131.617 -389.665C-58.2205 -457.438 -31.1754 -423.063 -5.67045 -511.739C21.5518 -606.743 178.177 -586.864 196.451 -491.897C212.815 -400.416 299.69 -382.165 306.308 -301.82C311.317 -240.892 247.133 -283.958 254.791 -225.899ZM226.539 -240.036C238.464 -165.486 182.135 -85.0146 109.521 -129.053C22.4591 -182.357 20.2728 -201.836 -46.3855 -199.778C-133.224 -203.195 -164.112 -323.14 -104.245 -381.922C-44.3788 -440.705 -19.4358 -409.959 2.8182 -487.984C27.0349 -573.242 157.506 -550.371 181.683 -475.015C197.416 -400.091 262.877 -369.638 268.86 -297.08C273.004 -246.712 219.054 -290.841 226.539 -240.036ZM198.18 -254.205C208.667 -193.933 156.211 -132.037 101.154 -165.824C32.0392 -208.736 22.0675 -223.455 -27.9335 -223.592C-100.637 -229.889 -123.316 -324.42 -76.9799 -374.211C-30.6435 -424.003 -7.80273 -396.887 11.2004 -464.261C32.4114 -539.772 136.729 -513.909 160.549 -454.612C175.652 -396.244 225.958 -357.143 231.305 -292.372C234.584 -252.564 190.868 -297.757 198.18 -254.205ZM169.66 -268.424C178.707 -222.429 130.126 -179.108 92.6242 -202.644C41.4569 -235.164 23.6998 -245.122 -9.64386 -247.454C-68.2129 -256.631 -82.683 -325.749 -49.8768 -366.549C-17.0706 -407.35 3.66805 -383.863 19.4202 -440.586C37.6256 -506.351 122.049 -481.049 139.252 -434.259C153.726 -392.447 181.943 -415.241 186.655 -358.256C189.069 -329.008 162.52 -304.721 169.66 -268.424Z" stroke="url(#paint0_linear_64_5962)" stroke-opacity="0.5" stroke-width="11"/>
<path d="M75.832 143.616H77.392V149.976H74.032V147H62.92V130.2H66.568V143.616H72.184V130.2H75.832V143.616ZM92.4357 140.472C92.4357 140.808 92.4117 141.152 92.3637 141.504H82.5717C82.7157 142.384 83.0597 143.064 83.6037 143.544C84.1637 144.008 84.8757 144.24 85.7397 144.24C86.3317 144.24 86.8677 144.112 87.3477 143.856C87.8277 143.584 88.2037 143.216 88.4757 142.752H92.1717C91.6917 144.16 90.8757 145.28 89.7237 146.112C88.5717 146.944 87.2437 147.36 85.7397 147.36C83.8197 147.36 82.2197 146.704 80.9397 145.392C79.6597 144.08 79.0197 142.456 79.0197 140.52C79.0197 139.752 79.1237 139.016 79.3317 138.312C79.5557 137.608 79.8677 136.976 80.2677 136.416C80.6837 135.856 81.1637 135.376 81.7077 134.976C82.2517 134.56 82.8677 134.24 83.5557 134.016C84.2437 133.792 84.9717 133.68 85.7397 133.68C87.0357 133.68 88.1957 133.984 89.2197 134.592C90.2597 135.2 91.0517 136.024 91.5957 137.064C92.1557 138.104 92.4357 139.24 92.4357 140.472ZM85.7397 136.656C84.9557 136.656 84.2917 136.872 83.7477 137.304C83.2197 137.736 82.8597 138.336 82.6677 139.104H88.9317C88.7717 138.576 88.5397 138.136 88.2357 137.784C87.9317 137.416 87.5637 137.136 87.1317 136.944C86.7157 136.752 86.2517 136.656 85.7397 136.656ZM103.138 134.04H106.642V147H103.138V142.032H98.434V147H94.93V134.04H98.434V138.84H103.138V134.04ZM118.208 134.04H121.712V147H118.208V142.032H113.504V147H110V134.04H113.504V138.84H118.208V134.04ZM131.239 147.36C129.911 147.36 128.711 147.064 127.639 146.472C126.567 145.88 125.727 145.064 125.119 144.024C124.527 142.968 124.231 141.8 124.231 140.52C124.231 138.552 124.895 136.92 126.223 135.624C127.551 134.328 129.223 133.68 131.239 133.68C133.239 133.68 134.903 134.328 136.231 135.624C137.559 136.92 138.223 138.552 138.223 140.52C138.223 142.472 137.551 144.104 136.207 145.416C134.879 146.712 133.223 147.36 131.239 147.36ZM131.239 144.072C132.247 144.072 133.071 143.744 133.711 143.088C134.351 142.416 134.671 141.56 134.671 140.52C134.671 139.48 134.351 138.632 133.711 137.976C133.071 137.304 132.239 136.968 131.215 136.968C130.207 136.968 129.383 137.304 128.743 137.976C128.103 138.632 127.783 139.48 127.783 140.52C127.783 141.032 127.863 141.512 128.023 141.96C128.199 142.408 128.439 142.784 128.743 143.088C129.047 143.392 129.407 143.632 129.823 143.808C130.255 143.984 130.727 144.072 131.239 144.072ZM146.774 147.36C145.494 147.36 144.326 147.064 143.27 146.472C142.23 145.864 141.406 145.032 140.798 143.976C140.206 142.92 139.91 141.752 139.91 140.472C139.91 138.536 140.566 136.92 141.878 135.624C143.19 134.328 144.83 133.68 146.798 133.68C148.478 133.68 149.918 134.168 151.118 135.144C152.318 136.104 153.078 137.384 153.398 138.984H149.918C149.63 138.36 149.206 137.872 148.646 137.52C148.102 137.152 147.478 136.968 146.774 136.968C145.83 136.968 145.038 137.304 144.398 137.976C143.774 138.648 143.462 139.488 143.462 140.496C143.462 141.504 143.782 142.352 144.422 143.04C145.062 143.728 145.846 144.072 146.774 144.072C147.478 144.072 148.102 143.888 148.646 143.52C149.19 143.136 149.614 142.592 149.918 141.888H153.446C153.126 143.536 152.358 144.864 151.142 145.872C149.926 146.864 148.47 147.36 146.774 147.36ZM166.218 134.04V137.184H161.994V147H158.562V137.184H154.338V134.04H166.218ZM177.768 134.04H179.736V147H176.352V140.136L170.328 147H168.336V134.04H171.72V140.832L177.768 134.04Z" fill="#8569D0"/>
<path d="M200.748 147H196.524L192.348 140.808V147H188.844V134.04H192.348V139.8L196.284 134.04H200.268L195.876 140.232L200.748 147ZM207.903 147.36C206.575 147.36 205.375 147.064 204.303 146.472C203.231 145.88 202.391 145.064 201.783 144.024C201.191 142.968 200.895 141.8 200.895 140.52C200.895 138.552 201.559 136.92 202.887 135.624C204.215 134.328 205.887 133.68 207.903 133.68C209.903 133.68 211.567 134.328 212.895 135.624C214.223 136.92 214.887 138.552 214.887 140.52C214.887 142.472 214.215 144.104 212.871 145.416C211.543 146.712 209.887 147.36 207.903 147.36ZM207.903 144.072C208.911 144.072 209.735 143.744 210.375 143.088C211.015 142.416 211.335 141.56 211.335 140.52C211.335 139.48 211.015 138.632 210.375 137.976C209.735 137.304 208.903 136.968 207.879 136.968C206.871 136.968 206.047 137.304 205.407 137.976C204.767 138.632 204.447 139.48 204.447 140.52C204.447 141.032 204.527 141.512 204.687 141.96C204.863 142.408 205.103 142.784 205.407 143.088C205.711 143.392 206.071 143.632 206.487 143.808C206.919 143.984 207.391 144.072 207.903 144.072ZM234.217 147H230.833L229.633 139.2L225.625 147.024H224.953L220.945 139.2L219.745 147H216.361L218.521 134.04H221.521L225.289 141.384L229.105 134.04H232.081L234.217 147ZM236.657 134.04H248.369V147H244.889V137.208H240.137V147H236.657V134.04ZM262.311 134.016H264.927V146.976H262.167L261.879 145.824C260.695 146.848 259.295 147.36 257.679 147.36C255.727 147.36 254.103 146.712 252.807 145.416C251.527 144.104 250.887 142.464 250.887 140.496C250.887 138.544 251.527 136.92 252.807 135.624C254.103 134.328 255.727 133.68 257.679 133.68C259.327 133.68 260.743 134.208 261.927 135.264L262.311 134.016ZM255.423 143.04C256.095 143.712 256.935 144.048 257.943 144.048C258.967 144.048 259.815 143.712 260.487 143.04C261.159 142.368 261.495 141.52 261.495 140.496C261.495 139.472 261.159 138.624 260.487 137.952C259.815 137.28 258.975 136.944 257.967 136.944C257.295 136.944 256.687 137.104 256.143 137.424C255.615 137.728 255.199 138.152 254.895 138.696C254.591 139.224 254.439 139.824 254.439 140.496C254.439 141.52 254.767 142.368 255.423 143.04ZM276.505 134.04H280.009V147H276.505V142.032H271.801V147H268.297V134.04H271.801V138.84H276.505V134.04ZM292.8 134.04H294.768V147H291.384V140.136L285.36 147H283.368V134.04H286.752V140.832L292.8 134.04ZM307.565 134.04H309.533V147H306.149V140.136L300.125 147H298.133V134.04H301.517V140.832L307.565 134.04Z" fill="#1D1D1E"/>
</g>
</g>
<defs>
<filter id="filter0_d_64_5962" x="0" y="0" width="519" height="216" filterUnits="userSpaceOnUse" color-interpolation-filters="sRGB">
<feFlood flood-opacity="0" result="BackgroundImageFix"/>
<feColorMatrix in="SourceAlpha" type="matrix" values="0 0 0 0 0 0 0 0 0 0 0 0 0 0 0 0 0 0 127 0" result="hardAlpha"/>
<feOffset dy="5"/>
<feGaussianBlur stdDeviation="15"/>
<feComposite in2="hardAlpha" operator="out"/>
<feColorMatrix type="matrix" values="0 0 0 0 0 0 0 0 0 0 0 0 0 0 0 0 0 0 0.03 0"/>
<feBlend mode="normal" in2="BackgroundImageFix" result="effect1_dropShadow_64_5962"/>
<feBlend mode="normal" in="SourceGraphic" in2="effect1_dropShadow_64_5962" result="shape"/>
</filter>
<linearGradient id="paint0_linear_64_5962" x1="-45.0308" y1="-579.238" x2="606.691" y2="361.044" gradientUnits="userSpaceOnUse">
<stop offset="0.135049" stop-color="#E8DAFF"/>
<stop offset="1" stop-color="#EEE3FF" stop-opacity="0"/>
</linearGradient>
<clipPath id="clip0_64_5962">
<rect x="30" y="25" width="459" height="156" rx="20" fill="white"/>
</clipPath>
</defs>
</svg>
